<svg width="69" height="57" viewBox="0 0 69 57" fill="none" xmlns="http://www.w3.org/2000/svg">
<path d="M60.6071 24.6136H7.55429C7.10847 24.6136 6.43974 24.3907 6.21683 23.9449C5.99392 23.499 5.77101 23.0532 5.99392 22.3845L13.1271 1.43084C13.35 0.762106 14.0187 0.316284 14.6874 0.316284H53.474C54.1427 0.316284 54.8114 0.762106 55.0344 1.43084L62.1675 22.6074C62.3904 23.0532 62.1675 23.7219 61.9446 24.1678C61.4988 24.3907 61.053 24.6136 60.6071 24.6136ZM10.0063 21.2699H58.378L52.3594 3.43704H16.0249L10.0063 21.2699Z" fill="white"/>
<path d="M56.1489 56.044H49.9074C47.2325 56.044 45.2263 54.0378 45.2263 51.3629V45.5672C45.2263 44.6756 45.895 43.7839 47.0096 43.7839H59.2697C60.1613 43.7839 61.053 44.4527 61.053 45.5672V51.3629C60.83 54.0378 58.6009 56.044 56.1489 56.044ZM48.5699 47.1276V51.3629C48.5699 52.0316 49.2387 52.7004 49.9074 52.7004H56.1489C56.8176 52.7004 57.4864 52.0316 57.4864 51.3629V47.1276H48.5699Z" fill="white"/>
<path d="M18.254 56.044H12.0125C9.56049 56.044 7.33138 54.0378 7.33138 51.3629V45.5672C7.33138 44.6756 8.22302 43.7839 9.11467 43.7839H21.3748C22.2664 43.7839 23.1581 44.4527 23.1581 45.5672V51.3629C22.9352 54.0378 20.929 56.044 18.254 56.044ZM10.675 47.1276V51.3629C10.675 52.0316 11.3438 52.7004 12.0125 52.7004H18.254C18.9228 52.7004 19.5915 52.0316 19.5915 51.3629V47.1276H10.675Z" fill="white"/>
<path d="M62.3904 47.1277H5.771C2.65025 47.1277 0.198226 44.6757 0.198226 41.5549V26.8428C0.198226 23.722 2.65025 21.27 5.771 21.27H62.6133C65.7341 21.27 68.1861 23.722 68.1861 26.8428V41.5549C68.1861 44.6757 65.5112 47.1277 62.3904 47.1277ZM5.771 24.6137C4.43354 24.6137 3.54189 25.5053 3.54189 26.8428V41.5549C3.54189 42.8924 4.43354 43.784 5.771 43.784H62.6133C63.9508 43.784 64.8424 42.8924 64.8424 41.5549V26.8428C64.8424 25.5053 63.9508 24.6137 62.6133 24.6137H5.771Z" fill="white"/>
<path d="M55.0344 40.8861C51.4678 40.8861 48.5699 37.9883 48.5699 34.4217C48.5699 30.8551 51.4678 27.9573 55.0344 27.9573C58.6009 27.9573 61.4988 30.8551 61.4988 34.4217C61.4988 37.9883 58.6009 40.8861 55.0344 40.8861ZM55.0344 31.078C53.2511 31.078 51.9136 32.4155 51.9136 34.1988C51.9136 35.9821 53.2511 37.3195 55.0344 37.3195C56.8176 37.3195 58.1551 35.9821 58.1551 34.1988C58.1551 32.6384 56.8176 31.078 55.0344 31.078Z" fill="white"/>
<path d="M13.35 40.8861C9.7834 40.8861 6.88556 37.9883 6.88556 34.4217C6.88556 30.8551 9.7834 27.9573 13.35 27.9573C16.9166 27.9573 19.8144 30.8551 19.8144 34.4217C19.8144 37.9883 16.9166 40.8861 13.35 40.8861ZM13.35 31.078C11.5667 31.078 10.2292 32.4155 10.2292 34.1988C10.2292 35.9821 11.5667 37.3195 13.35 37.3195C15.1333 37.3195 16.4707 35.9821 16.4707 34.1988C16.4707 32.6384 14.9104 31.078 13.35 31.078Z" fill="white"/>
<path d="M26.7246 32.6384H41.4368V35.9821H26.7246V32.6384Z" fill="white"/>
</svg>
