<svg width="54" height="65" viewBox="0 0 54 65" fill="none" xmlns="http://www.w3.org/2000/svg">
<path d="M34.7519 57.1306C35.1523 57.8242 36.0382 58.061 36.7311 57.6609C37.4241 57.2609 37.6619 56.3753 37.2614 55.6817L25.2799 34.9291C24.8795 34.2355 23.9936 33.9986 23.3007 34.3987C22.6077 34.7988 22.3699 35.6844 22.7703 36.378L34.7519 57.1306Z" fill="white"/>
<path fill-rule="evenodd" clip-rule="evenodd" d="M1.18851 4.82862C0.599182 3.80789 0.630714 2.55932 1.27057 1.57066C1.913 0.582169 3.0368 0.0411705 4.20769 0.159204L20.0062 1.76406C21.3106 1.89813 22.4794 2.65462 23.1337 3.78801L27.9805 12.1829C27.9847 12.1899 27.9888 12.1968 27.9928 12.2039L33.5319 21.7978L34.7707 21.0826C35.4637 20.6825 36.3495 20.9194 36.75 21.613L53.1009 49.9335C54.2873 51.9886 53.5816 54.6245 51.5265 55.811L37.0805 64.1515C35.0261 65.3376 32.3897 64.6312 31.2032 62.5761L14.8523 34.2556C14.4519 33.562 14.6897 32.6764 15.3827 32.2763L16.6222 31.5606L1.18851 4.82862ZM24.7588 12.398L20.6248 5.23769C20.4338 4.90684 20.0935 4.68669 19.7134 4.64803L3.91681 3.0437C3.88291 3.03876 3.78231 3.03149 3.7048 3.14486C3.63064 3.2612 3.68229 3.35065 3.69927 3.38007L12.8683 19.263L24.7588 12.398ZM14.3177 21.7734L19.128 30.1051L31.0185 23.2401L26.2082 14.9083L14.3177 21.7734ZM33.7126 61.1269L18.0862 34.0611L34.964 24.3167L50.5904 51.3825C50.9781 52.054 50.7477 52.9141 50.0768 53.3015L35.6313 61.6415C34.9604 62.0289 34.1003 61.7984 33.7126 61.1269Z" fill="white"/>
</svg>
