<svg width="15" height="10" viewBox="0 0 15 10" fill="none" xmlns="http://www.w3.org/2000/svg">
<path d="M1.67357 0.672363C1.536 0.672363 1.40551 0.700976 1.28527 0.74806L7.22427 5.88072C7.48099 6.1025 7.75443 6.10274 8.01174 5.88072L13.9617 0.74806C13.8416 0.700856 13.711 0.672363 13.5734 0.672363H1.67348H1.67357ZM0.634521 1.56479C0.627807 1.612 0.623535 1.66162 0.623535 1.71075V8.63384C0.623535 9.2091 1.09178 9.67236 1.67359 9.67236H13.5735C14.1551 9.67236 14.6235 9.20926 14.6235 8.63384V1.71075C14.6235 1.66162 14.6193 1.612 14.6125 1.56467L8.70073 6.66519C8.08392 7.19725 7.15193 7.19808 6.53509 6.66519L0.634517 1.56467L0.634521 1.56479Z" fill="#72C7DB"/>
</svg>
