<svg width="15" height="10" viewBox="0 0 15 10" fill="none" xmlns="http://www.w3.org/2000/svg">
<path d="M1.49975 0.339233C1.36218 0.339233 1.23168 0.367587 1.11144 0.414245L7.05045 5.50044C7.30716 5.72021 7.5806 5.72045 7.83791 5.50044L13.7879 0.414245C13.6677 0.367468 13.5371 0.339233 13.3995 0.339233H1.49965H1.49975ZM0.460693 1.22358C0.453979 1.27036 0.449707 1.31953 0.449707 1.36822V8.22863C0.449707 8.79869 0.917953 9.25776 1.49976 9.25776H13.3997C13.9813 9.25776 14.4497 8.79884 14.4497 8.22863V1.36822C14.4497 1.31953 14.4454 1.27036 14.4387 1.22346L8.5269 6.27781C7.91009 6.80505 6.9781 6.80588 6.36126 6.27781L0.460689 1.22346L0.460693 1.22358Z" fill="#632A50"/>
</svg>
