<svg width="67" height="60" viewBox="0 0 67 60" fill="none" xmlns="http://www.w3.org/2000/svg">
<path d="M63.1389 25.5666H63.0283C63.361 23.781 64.3696 21.2207 63.1265 19.5764C62.1895 17.8455 59.7443 17.6436 58.0422 17.257L58.9935 12.9017C60.2119 13.0745 61.4396 12.139 61.6766 10.9399L62.2512 8.30809V8.3076C62.5667 6.98943 61.6529 5.55979 60.321 5.29957L52.2824 3.56383C51.6204 3.42017 50.9461 3.54161 50.3812 3.90693C49.07 4.66078 49.1042 6.79098 48.7116 8.12545C48.4396 9.37595 49.1604 10.6057 50.3413 11.0239L49.3984 15.3821L46.8624 14.8311C44.7519 14.3271 42.4681 15.7943 42.0534 17.9241L41.8031 19.0837C39.9206 18.2869 37.8205 17.85 35.6241 17.8333C35.9687 15.8758 36.7137 14.028 38.1992 13.2855C39.4877 12.6146 38.5216 10.6779 37.2099 11.3074C34.7483 12.5381 33.7472 15.357 33.3685 17.9756C30.1506 18.3661 27.3099 19.6393 25.1541 21.6539C24.9803 21.2521 24.809 20.8423 24.6357 20.4488C24.6343 20.4454 24.5913 20.3476 24.5898 20.3442C21.9827 14.6831 13.8947 -1.42773 6.93798 0.768802C2.06138 2.78347 3.89292 14.7454 7.76638 25.5663H3.4235C1.59386 25.5663 0.105957 27.0542 0.105957 28.8838V36.6248C0.105957 38.4544 1.59386 39.9423 3.4235 39.9423H4.20598L6.51638 56.8561C6.71287 58.5617 8.15986 59.8478 9.88131 59.8478H56.6807C58.4022 59.8478 59.8492 58.5617 60.0432 56.8783L62.3566 39.9431H63.1386C64.9682 39.9431 66.4561 38.4552 66.4561 36.6255V28.8846C66.4561 27.0555 64.9682 25.5671 63.1386 25.5671L63.1389 25.5666ZM51.448 5.95965C51.5013 5.76464 51.6316 5.69849 51.8133 5.72515L59.8518 7.46088C60.0538 7.53741 60.1031 7.62133 60.0893 7.83658L59.5147 10.4684C59.4416 10.6718 59.3537 10.7256 59.1459 10.7058L54.8869 9.78067C54.3221 9.65676 51.6178 9.06829 51.1102 8.96017C50.9429 8.92364 50.8357 8.75974 50.8718 8.59584L51.448 5.95965ZM52.4951 11.5249C53.5683 11.7574 55.7469 12.2319 56.8237 12.4673L55.8797 16.7881C54.8391 16.563 52.613 16.0797 51.559 15.8511L52.4951 11.5249ZM44.215 18.392C44.4021 17.4313 45.4413 16.7654 46.3931 16.9935L50.0028 17.7769C50.0082 17.7819 55.8234 19.0388 55.8307 19.0413L60.108 19.9694C61.0726 20.156 61.7411 21.1863 61.506 22.1412C61.505 22.1466 60.766 25.5613 60.7645 25.5678L48.688 25.5673C47.6429 23.317 45.9417 21.4386 43.842 20.118L44.215 18.392ZM33.1713 20.2201C33.1126 21.9944 33.2715 23.3481 33.2898 23.4932C33.3624 24.1019 33.9291 24.5294 34.523 24.4534C35.1288 24.3779 35.5593 23.8254 35.4842 23.2197C35.3934 22.4826 35.3287 21.3214 35.3875 20.0428C39.7748 20.0033 43.9455 21.8394 46.1877 25.5681L26.7514 25.5672C26.5287 24.994 26.3036 24.4189 26.077 23.8427C27.8435 21.9187 30.3074 20.6624 33.1707 20.22L33.1713 20.2201ZM7.78487 2.81348C9.34241 2.1643 12.9769 4.67421 17.4037 11.6005L12.7621 14.6953C12.2541 15.0345 12.1168 15.7207 12.4555 16.2287C12.7966 16.7407 13.4873 16.8715 13.9889 16.5353L18.5584 13.4889C19.7763 15.5465 20.9705 17.8263 22.138 20.3308L18.3747 22.3861C17.8391 22.6788 17.6416 23.3502 17.9349 23.8869C18.2291 24.4279 18.9094 24.617 19.4357 24.3267L23.0479 22.354C23.5115 23.3932 23.9657 24.4991 24.3666 25.5679H10.117C5.149 12.1385 5.54054 3.74041 7.78484 2.81403L7.78487 2.81348ZM57.85 56.6031C57.7814 57.1926 57.2793 57.6374 56.6815 57.6374L9.88205 57.6369C9.2842 57.6369 8.78213 57.1926 8.71104 56.5804L6.43869 39.9434H60.1247L57.85 56.6031ZM63.1394 37.7317H61.3923H5.17103H3.42392C2.81423 37.7317 2.31807 37.2355 2.31807 36.6259V28.8849C2.31807 28.2752 2.81423 27.7791 3.42392 27.7791H9.35101C24.6028 27.7801 46.419 27.7786 61.6582 27.7791H63.1398C63.7495 27.7791 64.2456 28.2752 64.2456 28.8849V31.0966H42.1287C41.518 31.0966 41.0228 31.5918 41.0228 32.2025C41.0228 32.8131 41.518 33.3083 42.1287 33.3083H64.2456V36.6259C64.2456 37.2355 63.7495 37.7317 63.1398 37.7317H63.1394Z" fill="white"/>
</svg>
