<svg width="202" height="220" viewBox="0 0 202 220" fill="none" xmlns="http://www.w3.org/2000/svg">
<path d="M120.623 0.733398V40.6154H81.5325V0.733398H77.5884V44.2188H124.547V0.733398H120.623Z" fill="white"/>
<path d="M143.524 77.2589H58.6313V46.4903C58.6313 43.0211 61.4604 40.192 64.9296 40.192H137.225C140.695 40.192 143.524 43.0211 143.524 46.4903V77.2589ZM62.7614 73.1289H139.394V46.4903C139.394 45.2926 138.423 44.322 137.225 44.322H64.9296C63.7319 44.322 62.7614 45.2926 62.7614 46.4903V73.1289Z" fill="white"/>
<path d="M187.385 110.196H14.7501C11.2602 110.196 8.43115 107.367 8.43115 103.877V79.4477C8.43115 75.9578 11.2602 73.1288 14.7501 73.1288H187.385C190.874 73.1288 193.704 75.9578 193.704 79.4477V103.877C193.724 107.367 190.874 110.196 187.385 110.196ZM14.7707 77.2588C13.5524 77.2588 12.5818 78.25 12.5818 79.4477V103.877C12.5818 105.095 13.573 106.066 14.7707 106.066H187.405C188.624 106.066 189.594 105.074 189.594 103.877V79.4477C189.594 78.2294 188.603 77.2588 187.405 77.2588H14.7707Z" fill="white"/>
<path d="M194.829 201.015H6.64499C3.01058 201.015 0.0576172 203.968 0.0576172 207.602V219.62H4.37348V207.602C4.37348 206.342 5.40598 205.31 6.66564 205.31H194.85C196.109 205.31 197.142 206.342 197.142 207.602V219.62H201.458V207.602C201.416 203.968 198.463 201.015 194.829 201.015Z" fill="white"/>
<path d="M36.5567 118.373H21.668C19.3139 118.373 17.4141 116.473 17.4141 114.119V112.405C17.4141 110.051 19.3139 108.151 21.668 108.151H36.5567C38.9108 108.151 40.8106 110.051 40.8106 112.405V114.119C40.8106 116.453 38.9108 118.373 36.5567 118.373Z" fill="white"/>
<path d="M65.3428 118.373H50.4541C48.1 118.373 46.2002 116.473 46.2002 114.119V112.405C46.2002 110.051 48.1 108.151 50.4541 108.151H65.3428C67.6969 108.151 69.5967 110.051 69.5967 112.405V114.119C69.5967 116.453 67.6969 118.373 65.3428 118.373Z" fill="white"/>
<path d="M94.1289 118.373H79.2402C76.8861 118.373 74.9863 116.473 74.9863 114.119V112.405C74.9863 110.051 76.8861 108.151 79.2402 108.151H94.1289C96.483 108.151 98.3828 110.051 98.3828 112.405V114.119C98.3828 116.453 96.483 118.373 94.1289 118.373Z" fill="white"/>
<path d="M122.915 118.373H108.026C105.672 118.373 103.772 116.473 103.772 114.119V112.405C103.772 110.051 105.672 108.151 108.026 108.151H122.915C125.269 108.151 127.169 110.051 127.169 112.405V114.119C127.169 116.453 125.269 118.373 122.915 118.373Z" fill="white"/>
<path d="M151.701 118.373H136.813C134.459 118.373 132.559 116.473 132.559 114.119V112.405C132.559 110.051 134.459 108.151 136.813 108.151H151.701C154.056 108.151 155.955 110.051 155.955 112.405V114.119C155.955 116.453 154.056 118.373 151.701 118.373Z" fill="white"/>
<path d="M180.488 118.373H165.599C163.245 118.373 161.345 116.473 161.345 114.119V112.405C161.345 110.051 163.245 108.151 165.599 108.151H180.488C182.842 108.151 184.741 110.051 184.741 112.405V114.119C184.762 116.453 182.842 118.373 180.488 118.373Z" fill="white"/>
<path d="M189.594 144.31H12.5611C11.4253 144.31 10.4961 143.38 10.4961 142.245C10.4961 141.109 11.4253 140.18 12.5611 140.18H189.573C190.709 140.18 191.638 141.109 191.638 142.245C191.659 143.38 190.73 144.31 189.594 144.31Z" fill="white"/>
<path d="M184.824 188.377H11.9415C9.67003 188.377 7.81152 186.518 7.81152 184.247C7.81152 181.975 9.67003 180.117 11.9415 180.117H184.824C187.095 180.117 188.954 181.975 188.954 184.247C188.954 186.518 187.116 188.377 184.824 188.377Z" fill="white"/>
</svg>
