<svg width="80" height="64" viewBox="0 0 80 64" fill="none" xmlns="http://www.w3.org/2000/svg">
<path d="M41.5513 20.1956L41.5508 20.1951C41.132 19.7757 40.5601 19.5438 39.9672 19.5522L41.5513 20.1956ZM41.5513 20.1956C41.9708 20.6146 42.2028 21.1865 42.1943 21.7793L42.1942 21.7793M41.5513 20.1956L42.1942 21.7793M42.1942 21.7793V21.7864M42.1942 21.7793V21.7864M42.1942 21.7864V23.792V24.292M42.1942 21.7864V24.292M42.1942 24.292H42.6942M42.1942 24.292H42.6942M42.6942 24.292H44.6999V24.2921M42.6942 24.292L44.6999 24.2921M44.6999 24.2921L44.7114 24.2919M44.6999 24.2921L44.7114 24.2919M44.7114 24.2919C45.3015 24.2783 45.8727 24.5038 46.2954 24.9174L46.2956 24.9177M44.7114 24.2919L46.2956 24.9177M46.2956 24.9177C46.7183 25.3307 46.957 25.897 46.957 26.488C46.957 27.079 46.7183 27.6453 46.2956 28.0583L46.2954 28.0586M46.2956 24.9177L46.2954 28.0586M46.2954 28.0586C45.873 28.472 45.3018 28.6972 44.7109 28.6842L44.711 28.684M46.2954 28.0586L44.711 28.684M44.711 28.684H44.6999M44.711 28.684H44.6999M44.6999 28.684H42.6942H42.1942M44.6999 28.684H42.1942M42.1942 28.684V29.184M42.1942 28.684V29.184M42.1942 29.184V31.1891H42.1941M42.1942 29.184L42.1941 31.1891M42.1941 31.1891L42.1944 31.2006M42.1941 31.1891L42.1944 31.2006M42.1944 31.2006C42.2079 31.7914 41.9823 32.3627 41.5688 32.7853L41.5685 32.7855M42.1944 31.2006L41.5685 32.7855M41.5685 32.7855C41.1557 33.2079 40.5895 33.4462 39.9982 33.4462C39.4069 33.4462 38.8407 33.2079 38.4279 32.7855L38.4276 32.7853M41.5685 32.7855L38.4276 32.7853M38.4276 32.7853C38.0143 32.363 37.789 31.7917 37.802 31.2001L37.8022 31.2001M38.4276 32.7853L37.8022 31.2001M37.8022 31.2001V31.1891M37.8022 31.2001V31.1891M37.8022 31.1891V29.184V28.684M37.8022 31.1891V28.684M37.8022 28.684H37.3022M37.8022 28.684H37.3022M37.3022 28.684H35.2966V28.6839M37.3022 28.684L35.2966 28.6839M35.2966 28.6839L35.2855 28.6842M35.2966 28.6839L35.2855 28.6842M35.2855 28.6842C34.6948 28.6972 34.1235 28.472 33.7011 28.0586L33.7009 28.0584M35.2855 28.6842L33.7009 28.0584M33.7009 28.0584C33.2784 27.6455 33.0402 27.0794 33.0402 26.488C33.0402 25.8967 33.2784 25.3305 33.7008 24.9177L33.7011 24.9174M33.7009 28.0584L33.7011 24.9174M33.7011 24.9174C34.1237 24.5038 34.6949 24.2783 35.2851 24.2919L35.2851 24.292M33.7011 24.9174L35.2851 24.292M35.2851 24.292H35.2966M35.2851 24.292H35.2966M35.2966 24.292H37.3022H37.8022M35.2966 24.292H37.8022M37.8022 24.292V23.792M37.8022 24.292V23.792M37.8022 23.792V21.7864H37.8022M37.8022 23.792L37.8022 21.7864M37.8022 21.7864L37.8021 21.7792M37.8022 21.7864L37.8021 21.7792M37.8021 21.7792C37.7936 21.1975 38.0169 20.6359 38.4231 20.2176L37.8021 21.7792ZM38.4231 20.2176C38.8294 19.8 39.3844 19.5607 39.9671 19.5522L38.4231 20.2176Z" fill="white" stroke="#72C7DB"/>
<path d="M25.3558 26.4858C25.3558 18.4352 31.9475 11.8468 39.9991 11.8468C48.0505 11.8468 54.6381 18.4351 54.6381 26.4858C54.6381 34.5365 48.0505 41.1248 39.9991 41.1248C31.9475 41.1248 25.3558 34.5364 25.3558 26.4858ZM50.2461 26.486C50.2461 20.8017 45.6851 16.243 39.9991 16.243C34.3133 16.243 29.7478 20.8007 29.7478 26.486C29.7478 32.1703 34.3131 36.733 39.9991 36.733C45.6852 36.733 50.2461 32.17 50.2461 26.486Z" fill="white" stroke="#72C7DB"/>
<path d="M8.90872 58.4113H8.40872H3.32496C2.53969 58.4113 1.81363 58.8305 1.42095 59.5106C1.02832 60.1907 1.0283 61.0285 1.42095 61.7087L8.90872 58.4113ZM8.90872 58.4113V57.9113M8.90872 58.4113V57.9113M8.90872 57.9113V47.0864V47.0338M8.90872 57.9113V47.0338M8.90872 47.0338L8.89777 46.9823M8.90872 47.0338L8.89777 46.9823M8.89777 46.9823C8.86605 46.8333 8.8497 46.6802 8.8497 46.5255C8.8497 46.3706 8.86605 46.2174 8.89778 46.0682L8.90872 46.0168M8.89777 46.9823L8.90872 46.0168M8.90872 46.0168V45.9642M8.90872 46.0168V45.9642M8.90872 45.9642V2.83533L8.90872 2.83485M8.90872 45.9642L8.90872 2.83485M8.90872 2.83485C8.90816 2.25189 9.13934 1.69319 9.55168 1.28074L8.90872 2.83485ZM3.32496 62.8074C2.53939 62.8074 1.81352 62.3886 1.42096 61.7088L9.5519 1.28051C9.96458 0.868471 10.5235 0.636766 11.1062 0.63733H11.1067L68.8871 0.637331L68.8876 0.63733C69.4704 0.636767 70.0294 0.868533 70.4422 1.28075C70.8544 1.69311 71.0858 2.25196 71.0858 2.83533V45.9673V46.0196L71.0966 46.0707C71.128 46.2191 71.1442 46.3714 71.1442 46.5255C71.1442 46.6794 71.128 46.8316 71.0966 46.9799L71.0858 47.0311V47.0834V57.9113V58.4113H71.5858H76.6749C77.4603 58.4113 78.1863 58.8305 78.5789 59.5106C78.9716 60.1908 78.9716 61.0287 78.5789 61.7087C78.1864 62.3886 77.4604 62.8074 76.6749 62.8074H49.7562H49.7039L49.6527 62.8183C49.5044 62.8497 49.3521 62.8658 49.1982 62.8658C49.044 62.8658 48.8916 62.8497 48.7431 62.8182L48.6919 62.8074H48.6396H31.3561H31.3038L31.2526 62.8182C31.1044 62.8496 30.9522 62.8658 30.7984 62.8658C30.6444 62.8658 30.492 62.8496 30.3437 62.8182L30.2925 62.8074H30.2402H3.32496ZM66.6947 5.52928V5.02928H66.1947H13.8006H13.3006V5.52928V43.8288V44.3288H13.8006H30.1103H30.1752L30.238 44.3122C30.4091 44.267 30.5867 44.2424 30.7668 44.2397C30.9683 44.2368 31.1673 44.2617 31.3587 44.3122L31.4214 44.3288H31.4863H48.5107H48.5756L48.6383 44.3122C48.8081 44.2674 48.9841 44.2428 49.1627 44.2398C49.3653 44.2367 49.5653 44.2615 49.7576 44.3123L49.8203 44.3288H49.8851H66.1947H66.6947V43.8288V5.52928ZM33.4944 48.7215H32.9944V49.2215V57.9109V58.4109H33.4944H46.5021H47.0021V57.9109V49.2215V48.7215H46.5021H33.4944ZM13.8006 48.7215H13.3006V49.2215V57.9109V58.4109H13.8006H28.1017H28.6017V57.9109V49.2215V48.7215H28.1017H13.8006ZM66.6947 49.2215V48.7215H66.1947H51.8942H51.3942V49.2215V57.9109V58.4109H51.8942H66.1947H66.6947V57.9109V49.2215Z" fill="white" stroke="#72C7DB"/>
</svg>
