<svg width="120" height="158" viewBox="0 0 120 158" fill="none" xmlns="http://www.w3.org/2000/svg">
<path fill-rule="evenodd" clip-rule="evenodd" d="M49.5122 0.140625C46.275 0.140625 43.738 2.92261 44.0354 6.146L46.1089 28.6172H25.5237L25.142 28.3733V19.5149C25.142 17.1487 23.2487 15.02 20.6647 15.0841C17.0114 15.1747 12.15 15.8857 8.1073 17.9597C3.96582 20.0842 0.447998 23.8079 0.447998 29.7427C0.447998 30.0878 0.473755 30.4263 0.523193 30.7584V113.301C0.523193 117.719 4.10486 121.301 8.52319 121.301H54.6614L55.8916 134.633C55.9869 135.666 56.3639 136.611 56.9424 137.394C56.4801 138.199 56.2158 139.132 56.2158 140.128V152.337C56.2158 155.374 58.6782 157.837 61.7158 157.837H102.194C105.232 157.837 107.694 155.374 107.694 152.337V140.128C107.694 139.101 107.413 138.141 106.924 137.318C107.471 136.551 107.828 135.633 107.92 134.633L119.776 6.146C120.073 2.92249 117.536 0.140625 114.299 0.140625H49.5122ZM59.6826 121.301L60.8704 134.174C60.8942 134.431 61.11 134.628 61.3683 134.628H102.443C102.701 134.628 102.917 134.431 102.941 134.174L104.129 121.301H59.6826ZM112.681 28.6172L113.483 19.9302H50.3286L51.1302 28.6172H112.681ZM49.0143 5.68652C48.9873 5.39355 49.2179 5.14062 49.5122 5.14062H61.9321V14.9302H49.8672L49.0143 5.68652ZM79.4058 14.9302H66.9321V5.14062H79.4058V14.9302ZM96.8794 14.9302H84.4058V5.14062H96.8794V14.9302ZM113.944 14.9302H101.879V5.14062H114.299C114.594 5.14062 114.824 5.39355 114.797 5.68652L113.944 14.9302ZM20.142 20.1057V28.6172H5.51794C5.88806 25.7336 7.70325 23.7865 10.3895 22.4084C13.3062 20.9122 17.0156 20.2515 20.142 20.1057ZM100.658 54.0457C100.658 51.8365 98.8673 50.0457 96.6582 50.0457H28.7134C26.5043 50.0457 24.7134 51.8365 24.7134 54.0457V57.8506C24.7134 60.0597 26.5043 61.8506 28.7134 61.8506H96.6582C98.8673 61.8506 100.658 60.0597 100.658 57.8506V54.0457ZM86.886 73.9391C86.886 71.73 85.0951 69.9391 82.886 69.9391H42.4856C40.2765 69.9391 38.4856 71.73 38.4856 73.9391V97.4188C38.4856 99.6279 40.2765 101.419 42.4856 101.419H82.886C85.0951 101.419 86.886 99.6279 86.886 97.4188V73.9391Z" fill="white"/>
</svg>
