<svg width="59" height="69" viewBox="0 0 59 69" fill="none" xmlns="http://www.w3.org/2000/svg">
<path d="M6.85207 24.8778C7.18708 25.6091 6.60947 26.482 5.81014 26.4688L5.81007 26.4687C5.37158 26.4687 4.9539 26.2134 4.76764 25.7856L0.900828 16.9041C-1.38753 11.1519 6.84487 7.58562 9.48039 13.1703L9.95187 14.2528C10.4438 15.4521 11.9399 16.0388 13.1158 15.4972C14.3074 15.0085 14.8997 13.5037 14.3607 12.3344L13.4188 10.1698C9.96473 1.52686 22.3597 -3.86656 26.3274 4.55215L27.4485 7.12778C27.6038 7.50841 28.0961 7.70177 28.4681 7.52871C31.9061 5.58491 36.1972 6.59286 37.8517 10.3231L38.249 11.2356C38.4998 11.8122 38.2364 12.4816 37.6608 12.7324C37.0852 12.9826 36.4148 12.7192 36.1641 12.1442L35.7667 11.2316C34.8796 9.19196 32.4983 8.2561 30.4581 9.14324L29.3756 9.61371C27.8962 10.2978 25.9818 9.54563 25.3632 8.0363L24.242 5.46068C21.5989 -0.246385 13.1365 3.4423 15.5031 9.262L16.445 11.4265C18.159 15.1208 14.1953 19.2297 10.4421 17.6482C9.27995 17.1919 8.36487 16.3083 7.86598 15.1614L7.3945 14.0788C6.90534 12.8872 5.39901 12.2939 4.23019 12.8334C3.0152 13.3627 2.45693 14.7818 2.98526 15.9963L6.85207 24.8778Z" fill="white"/>
<path fill-rule="evenodd" clip-rule="evenodd" d="M53.9153 17.8595L58.4022 28.1656L58.4014 28.1658C58.6237 28.6784 58.4415 29.2757 57.97 29.5777L34.811 44.3917L36.2133 47.6113L39.296 46.27C39.8721 46.0177 40.5415 46.2832 40.7922 46.8582L47.9726 63.3495C48.2284 63.9048 47.9482 64.6138 47.3839 64.8462L39.1363 68.4354C38.9891 68.4998 38.8353 68.5298 38.6836 68.5298C38.2451 68.5298 37.8274 68.2745 37.6406 67.8472L30.4602 51.3559C30.2044 50.8006 30.4846 50.0916 31.0489 49.8591L34.129 48.5188L32.3405 44.4105C32.1182 43.8979 32.3004 43.3006 32.7704 42.9986L55.9294 28.1846L52.2835 19.8106L49.2145 21.1464L51.9014 27.3178C52.0221 27.5944 52.0277 27.9075 51.9171 28.1882C51.8065 28.4693 51.5892 28.6947 51.3126 28.8144L26.1983 39.7433C26.3311 40.0962 26.5159 40.4902 26.712 40.9084C27.3802 42.3332 28.18 44.0387 27.5071 45.3574C27.1874 46.2044 26.5266 46.8947 25.6597 47.2712C25.0578 47.5195 24.7528 48.2889 25.0268 48.8811L28.7957 57.5384C31.0851 63.2565 22.8882 66.8802 20.2161 61.2722L13.2891 45.3603L10.079 46.757C9.51717 47.0052 8.83405 46.7494 8.58283 46.1688L2.30124 31.7407C2.04545 31.1854 2.32611 30.4759 2.88996 30.244L44.1241 12.3001C44.6986 12.0478 45.3696 12.3133 45.6203 12.8883L48.3076 19.0613L52.4191 17.2713C52.9952 17.0211 53.6646 17.2845 53.9153 17.8595ZM25.3917 44.5237C25.5232 44.202 25.5176 43.8756 25.3871 43.5747L24.1129 40.6495L15.3744 44.4524L22.3009 60.3629C23.6453 63.2426 27.8998 61.3759 26.7107 58.4455L22.9419 49.7882C22.1578 48.0865 23.019 45.8981 24.7527 45.1855C25.0532 45.0556 25.2796 44.8201 25.3917 44.5237ZM17.106 41.2195C20.2409 39.8554 24.2537 38.1093 24.266 38.1037L49.3633 27.1837C48.3191 24.7855 46.4536 20.4997 45.0465 17.2671C44.6475 16.3504 44.2853 15.5185 43.9892 14.8382L4.84041 31.8739L10.2145 44.2183L13.4057 42.8297C13.4173 42.82 13.429 42.8144 13.4442 42.8129C13.4555 42.808 15.1013 42.0918 17.106 41.2195ZM39.2713 65.8991L45.4346 63.2168L39.1617 48.8095C38.515 49.0908 37.6001 49.4891 36.6416 49.9063C35.311 50.4854 33.8964 51.1012 32.9984 51.4917L39.2713 65.8991Z" fill="white"/>
</svg>
