<svg width="67" height="59" viewBox="0 0 67 59" fill="none" xmlns="http://www.w3.org/2000/svg">
<path d="M61.3629 26.2794C59.8512 24.7677 58.1192 23.5961 56.2339 22.7638C58.6452 19.4521 58.3907 14.7643 55.4017 11.7754L46.9948 3.36849C45.3985 1.7722 43.2583 0.888916 40.9826 0.888916C38.707 0.888916 36.584 1.77208 34.9705 3.36849L2.55047 35.8067C-0.761289 39.1185 -0.761289 44.5022 2.55047 47.814L10.9574 56.2209C12.6046 57.8681 14.7785 58.7005 16.9695 58.7005C19.1605 58.7005 21.3173 57.8683 22.9816 56.2209L33.9191 45.2835C34.7341 47.1007 35.872 48.799 37.3664 50.2934C40.661 53.6058 45.0086 55.2701 49.3564 55.2701C53.7041 55.2701 58.0518 53.6056 61.3636 50.3112C67.9871 43.6705 67.9871 32.9032 61.3636 26.2797L61.3629 26.2794ZM36.2275 41.7009C36.0919 41.1571 35.99 40.6139 35.9047 40.0702C35.9047 40.0364 35.8875 39.9855 35.8875 39.9511C35.7519 38.7961 35.7519 37.6417 35.9047 36.5038C35.9047 36.47 35.9219 36.4357 35.9219 36.4019C36.1594 34.7202 36.7031 33.073 37.5526 31.5958C37.6035 31.5111 37.6373 31.4429 37.6882 31.3748C37.9257 30.9845 38.1804 30.5935 38.4523 30.237C38.5204 30.1351 38.588 30.0332 38.6733 29.9313C39.0127 29.5066 39.3698 29.0819 39.7602 28.6916C40.1505 28.3012 40.5752 27.944 40.9999 27.6046C41.0847 27.5365 41.1699 27.469 41.2547 27.418C41.6622 27.1124 42.0697 26.8405 42.5116 26.5858C42.5453 26.5686 42.5625 26.552 42.5963 26.5349C45.6533 24.7857 49.3388 24.2762 52.8206 25.1932H52.8544C54.6035 25.6517 56.2342 26.4667 57.6778 27.588L38.6215 46.6094C37.4671 45.115 36.6686 43.4505 36.2273 41.7014L36.2275 41.7009ZM37.382 5.78104C38.3498 4.81317 39.6239 4.28658 40.9821 4.28658C42.3409 4.28658 43.6144 4.81317 44.5823 5.78104L52.9892 14.188C54.9764 16.1752 54.9764 19.4017 52.9892 21.3889L52.7345 21.6436C51.631 21.4227 50.5103 21.3042 49.3553 21.3042C49.0834 21.3042 48.8287 21.338 48.5568 21.338H48.5396C45.7545 21.4736 43.105 22.2721 40.7446 23.6647C40.6936 23.6985 40.6255 23.7328 40.5746 23.7666C40.0823 24.0722 39.6067 24.395 39.1311 24.7516C39.0292 24.8197 38.9273 24.8873 38.8254 24.9726C38.316 25.3801 37.8066 25.822 37.331 26.2804C36.8553 26.7561 36.4306 27.2483 36.0231 27.7749C35.9384 27.894 35.8531 28.0124 35.7512 28.1315C35.4284 28.5562 35.1399 28.9975 34.8509 29.4394C34.7827 29.5412 34.7152 29.6603 34.6471 29.7788C34.3414 30.3054 34.0696 30.8319 33.832 31.3751C33.8149 31.4088 33.7983 31.4598 33.7811 31.4941C33.713 31.6641 33.6283 31.8335 33.5602 32.0035L22.3508 20.7942L37.382 5.78104ZM20.5684 53.8106C18.5812 55.7978 15.3547 55.7978 13.3675 53.8106L4.96053 45.4037C2.97333 43.4165 2.97333 40.19 4.96053 38.2028L19.9738 23.1895L32.5923 35.808C32.5242 36.3174 32.4567 36.8439 32.4395 37.3533C32.4395 37.438 32.4223 37.5233 32.4223 37.608C32.4052 38.2193 32.4052 38.8478 32.4395 39.459V39.5947C32.4905 40.2913 32.5752 40.9701 32.7114 41.6495L20.5684 53.8106ZM58.9675 47.9003C54.076 52.7918 46.3657 53.1483 41.0334 49.021L60.0896 29.9662C64.2165 35.299 63.8598 43.0094 58.9684 47.9004L58.9675 47.9003Z" fill="white"/>
</svg>
