<svg width="13" height="14" viewBox="0 0 13 14" fill="none" xmlns="http://www.w3.org/2000/svg">
<path fill-rule="evenodd" clip-rule="evenodd" d="M9.53198 8.42971C11.1517 9.2439 11.9142 9.98612 12.1646 10.6324C12.3265 11.0502 12.2868 11.4279 12.124 11.7617C11.9711 12.0755 11.7105 12.3419 11.412 12.5615C10.6814 13.0992 9.64565 13.3636 9.51965 13.3375L9.51113 13.3354C8.25204 13.0292 7.15247 12.5755 6.14728 11.9479C5.14346 11.321 4.23834 10.5236 3.36695 9.52936C2.55574 8.6038 1.91363 7.62095 1.43073 6.5732C0.947383 5.5246 0.624218 4.41363 0.451037 3.23239V3.22923C0.423523 3.02716 0.824987 1.90551 1.47014 1.18038C1.71897 0.900676 2.00568 0.668665 2.32208 0.548339C2.66414 0.418339 3.03219 0.415836 3.41411 0.613447C4.02278 0.928323 4.66076 1.78278 5.2584 3.52724C5.50613 4.08361 5.14386 4.46937 4.75942 4.87831C4.3988 5.26201 4.00956 5.67628 4.53614 6.27707L6.70757 8.75469C7.23198 9.35309 7.69305 9.0283 8.12028 8.72747C8.57852 8.40498 9.01056 8.10078 9.53189 8.42979L9.53198 8.42971Z" fill="#632A50"/>
</svg>
