<svg width="13" height="14" viewBox="0 0 13 14" fill="none" xmlns="http://www.w3.org/2000/svg">
<path fill-rule="evenodd" clip-rule="evenodd" d="M9.7058 8.718C11.3255 9.53963 12.088 10.2886 12.3384 10.9408C12.5003 11.3624 12.4606 11.7435 12.2978 12.0804C12.1449 12.3971 11.8843 12.6659 11.5858 12.8875C10.8553 13.4302 9.81948 13.6969 9.69348 13.6706L9.68496 13.6685C8.42587 13.3595 7.32629 12.9017 6.32111 12.2683C5.31729 11.6357 4.41217 10.8311 3.54078 9.8277C2.72957 8.89368 2.08746 7.90186 1.60456 6.84453C1.12121 5.78635 0.798047 4.66523 0.624865 3.4732V3.47002C0.597351 3.26609 0.998816 2.1342 1.64397 1.40244C1.8928 1.12018 2.1795 0.886054 2.4959 0.764629C2.83796 0.633441 3.20602 0.630915 3.58793 0.830331C4.19661 1.14808 4.83458 2.01035 5.43222 3.77075C5.67996 4.3322 5.31769 4.72148 4.93325 5.13416C4.57263 5.52136 4.18339 5.93941 4.70997 6.54569L6.8814 9.04595C7.40581 9.64981 7.86688 9.32206 8.2941 9.01848C8.75235 8.69305 9.18438 8.38607 9.70572 8.71808L9.7058 8.718Z" fill="#72C7DB"/>
</svg>
