<svg width="135" height="153" viewBox="0 0 135 153" fill="none" xmlns="http://www.w3.org/2000/svg">
<path d="M61.8034 120.915C56.5703 123.477 51.6809 125.992 46.8228 128.585C43.6517 130.272 40.3244 131.678 37.1845 133.428C35.0913 134.599 33.0449 135.833 30.8424 136.771C28.0305 137.989 25 138.598 21.9852 137.958C16.2991 136.771 11.5815 133.865 7.87929 129.335C5.50488 126.429 3.72408 123.196 2.53687 119.681C1.19345 115.635 1.006 111.339 1.70895 107.247C2.56811 102.217 5.17684 97.9053 9.73821 95.2497C11.4722 94.25 13.5966 93.9219 15.5024 93.3127C15.8148 92.9846 15.7055 92.6254 15.7523 92.3754C15.6118 91.9224 15.2368 92.0162 14.9869 91.8756C10.3474 89.3606 6.81706 85.6271 4.16147 81.1751C2.80243 78.91 2.06824 76.2701 1.41215 73.6301C0.631092 70.5527 0.506124 67.4754 0.881031 64.4292C1.66209 58.2277 4.55199 53.2758 10.4255 50.5421C14.612 48.5894 18.611 46.3244 22.7506 44.3092C26.5778 42.4347 30.3269 40.4039 34.1384 38.5138C36.3879 37.4047 38.606 36.0457 40.8711 34.9678C43.7766 33.5619 46.6822 32.0935 49.5408 30.6407C53.0243 28.8599 56.5079 27.0791 59.9601 25.2671C62.4751 23.9393 65.0214 22.6427 67.5364 21.3462C71.2542 19.4248 74.8939 17.3472 78.6118 15.4258C81.4392 13.9574 84.3447 12.6452 87.1877 11.2081C89.1716 10.2083 91.1087 9.14607 93.0769 8.11508C95.5294 6.83415 97.9819 5.53759 100.45 4.27228C102.434 3.25691 104.34 1.96036 106.449 1.31989C109.12 0.523213 111.854 0.0389584 114.806 0.773151C118.102 1.58545 121.101 2.75703 123.726 4.88151C126.725 7.3184 129.255 10.099 130.849 13.6918C131.755 15.7538 132.614 17.7846 133.27 19.9559C133.973 22.2834 133.864 24.611 133.926 26.9385C133.989 29.4223 133.973 31.9373 133.067 34.343C131.645 38.092 129.552 41.3256 125.913 43.3095C124.225 44.2311 122.523 45.1215 120.679 46.09C123.319 47.8396 125.866 49.5579 127.803 51.9792C129.115 53.635 130.396 55.3065 131.333 57.2123C133.864 62.3516 135.191 67.8034 134.598 73.5051C134.098 78.3945 132.442 82.9559 128.303 86.002C126.037 87.6735 123.46 88.97 120.914 90.1885C119.164 91.032 117.618 92.2661 115.712 92.8128C115.118 92.9847 115.009 93.5939 115.009 94.1875C115.04 102.576 115.071 110.949 115.087 119.337C115.087 120.072 115.384 120.54 115.962 120.946C116.602 121.399 117.18 121.915 117.774 122.415C119.852 124.18 119.461 128.226 116.665 129.491C113.837 130.772 111.213 132.459 108.464 133.912C106.214 135.084 103.871 136.115 101.622 137.302C98.9348 138.723 96.3261 140.285 93.6393 141.723C91.4679 142.879 89.2029 143.863 87.0628 145.065C83.3293 147.143 79.4709 148.94 75.7531 151.064C74.3003 151.892 72.8788 153.064 70.9262 152.985C68.2706 152.876 64.912 150.595 63.5217 148.377C61.8503 145.69 61.7409 142.863 61.7722 139.895C61.8347 134.178 61.7878 128.445 61.7878 122.727C61.8034 122.212 61.8034 121.712 61.8034 120.915ZM37.9343 83.7057C38.1999 83.9869 38.5904 84.1587 38.8716 83.9557C40.3556 82.9247 42.1208 82.3779 43.6204 81.4719C46.3541 79.816 49.2753 78.5351 52.0715 77.0355C55.758 75.0516 59.554 73.2083 63.2718 71.2713C67.0209 69.3186 70.7543 67.2879 74.519 65.3665C78.3306 63.4295 82.0796 61.3831 85.9537 59.5554C88.9373 58.1495 91.8272 56.5093 94.7796 54.9941C97.9351 53.3695 101.153 51.8386 104.246 50.1047C107.933 48.0271 111.775 46.2775 115.462 44.2155C117.961 42.8096 120.57 41.5599 123.148 40.2946C128.677 37.5609 130.396 32.7027 130.599 27.126C130.739 23.5956 129.63 20.1433 128.224 16.941C126.959 14.0823 125.241 11.3643 122.96 9.11483C119.961 6.14682 116.493 4.2879 112.135 4.2098C108.386 4.16294 105.418 6.1312 102.325 7.7558C100.2 8.88052 98.0757 10.0521 95.92 11.0987C93.0301 12.5046 90.1558 13.9418 87.3283 15.4258C83.4543 17.4565 79.5646 19.456 75.675 21.4711C73.5193 22.5959 71.3792 23.7518 69.161 24.7828C66.2867 26.095 63.5999 27.7977 60.8037 29.2661C56.9765 31.2656 53.1025 33.1557 49.2909 35.1709C47.1196 36.3112 44.9795 37.4984 42.7925 38.5763C40.3869 39.7791 37.9812 40.9975 35.5756 42.2004C32.2951 43.8406 29.0772 45.637 25.7967 47.2929C24.0315 48.1833 22.2976 49.1049 20.4699 50.0422C37.372 56.4781 41.8084 73.3801 37.9343 83.7057ZM49.697 82.7216C50.4 83.4089 50.7749 83.8619 51.4154 84.1431C53.2743 84.971 54.8989 86.2988 56.2423 87.7047C58.6323 90.1885 60.9911 92.8284 62.2564 96.1401C62.9906 98.0771 64.2716 99.8111 64.2716 102.045C64.2403 115.151 64.334 128.257 64.2091 141.348C64.1778 144.394 65.3182 146.721 67.3333 148.752C69.4109 150.83 71.1917 150.986 73.4099 149.486C76.8153 147.19 80.6581 145.706 84.1572 143.581C86.4379 142.207 88.9217 141.176 91.2492 139.895C93.8111 138.489 96.4198 137.146 98.9973 135.787C101.403 134.521 103.824 133.303 106.23 132.053C109.01 130.6 111.682 128.944 114.603 127.773C117.087 126.773 117.212 125.68 115.29 123.79C114.275 122.79 112.916 121.899 112.775 120.384C112.588 118.369 112.072 116.401 112.119 114.323C112.26 106.903 112.322 99.4674 112.135 92.0474C111.963 85.3772 113.025 78.6288 111.213 72.0367C110.619 69.8966 109.557 67.9596 108.401 66.1007C106.402 62.914 103.777 60.4146 100.294 58.79C98.888 58.1339 97.7008 57.8996 96.2949 58.665C94.1548 59.8522 91.9522 60.9613 89.7652 62.0392C85.9381 63.9294 82.2671 66.0851 78.3618 67.8503C75.425 69.1781 72.6601 70.8495 69.7858 72.2867C67.4895 73.427 65.1307 74.5049 62.9125 75.7702C60.8037 76.973 58.6011 77.9884 56.5235 79.2381C54.4303 80.5034 52.1496 81.4875 49.697 82.7216ZM38.3874 127.757C39.1684 127.898 39.637 127.867 40.1525 127.523C42.1989 126.18 44.4484 125.195 46.6041 124.086C48.4786 123.133 50.3688 122.181 52.2902 121.306C55.0551 120.04 57.6326 118.353 60.3663 117.041C61.3973 116.541 61.8034 116.01 61.8034 114.932C61.7722 111.261 61.7878 107.606 61.7878 103.935C61.7878 103.185 61.9596 102.373 61.7253 101.686C60.7256 98.7332 59.4134 95.9214 57.6326 93.3283C55.0239 89.548 51.556 86.8456 47.432 84.9554C46.6197 84.5805 45.5418 84.4868 44.8233 85.0647C43.761 85.9083 42.5113 86.3925 41.371 87.0486C38.6685 88.5951 35.6224 89.5636 33.0293 91.2663C29.9988 93.2502 26.8277 94.2343 23.2661 94.2031C22.8131 94.2031 22.2664 94.1094 22.0945 94.6874C28.921 97.0149 33.6542 101.639 36.7315 107.887C39.8714 114.198 40.793 120.821 38.3874 127.757ZM35.9192 120.134C36.4035 118.228 35.5443 116.198 35.0913 114.198C34.7164 112.527 33.7791 110.886 32.9824 109.277C31.4672 106.169 29.374 103.56 26.7809 101.373C24.7501 99.6549 22.3601 98.577 19.767 97.8116C16.4553 96.8275 13.5966 97.7647 10.8629 99.3893C9.50389 100.202 8.4729 101.373 7.45752 102.685C5.42678 105.325 5.17684 108.387 5.19246 111.339C5.20808 113.526 5.27057 115.854 6.19221 118.072C6.8483 119.681 7.37942 121.446 8.20734 122.915C9.59762 125.367 11.1597 127.789 13.3779 129.647C16.5803 132.334 20.0169 134.334 24.4377 134.209C26.1404 134.162 27.6088 133.662 29.0928 133.022C30.1238 132.584 31.1392 132.022 31.9202 131.194C34.7476 128.179 36.1848 124.571 35.9192 120.134ZM35.2788 75.364C35.8099 73.3645 34.8882 71.1151 34.1696 68.9437C33.3573 66.4912 32.1701 64.1481 30.5299 62.0548C28.5304 59.5242 26.3591 57.2435 23.4223 55.7751C21.9383 55.0253 20.2981 54.6817 18.8297 54.0412C16.2522 52.9165 13.9247 53.4945 11.8314 54.5879C7.02013 57.0717 4.69259 61.2269 4.70821 66.7099C4.72383 69.8029 5.03625 72.7865 6.30156 75.6921C7.34818 78.1133 8.50414 80.394 10.1131 82.5185C11.7377 84.6742 13.6591 86.4863 15.9398 87.8609C18.2205 89.2356 20.7042 90.0947 23.4067 90.2353C24.6251 90.2978 25.7186 89.8292 26.8746 89.6574C29.0928 89.2981 30.8267 88.189 32.1077 86.4706C34.4352 83.2996 35.4506 79.7067 35.2788 75.364ZM101.372 56.1813C101.575 56.4312 101.606 56.5562 101.684 56.5874C105.871 58.8213 109.073 62.0392 111.416 66.1476C112.041 67.2567 112.353 68.5845 112.931 69.6154C114.322 72.0836 114.509 74.7704 114.946 77.3792C115.353 79.816 115.009 82.3779 115.04 84.8929C115.056 86.1114 114.9 87.3611 115.243 88.8294C117.555 87.1267 120.148 86.3925 122.413 84.9398C122.976 84.5805 123.944 83.3152 124.96 84.7836C125.147 84.0181 125.178 83.5495 125.772 83.034C126.772 82.1905 127.787 81.2688 128.537 80.0347C129.537 78.3945 130.036 76.6293 130.458 74.8642C131.099 72.1305 131.067 69.2562 130.443 66.5225C129.974 64.4917 129.49 62.4454 128.474 60.5552C127.521 58.7744 126.678 56.9311 125.506 55.2753C123.772 52.8384 121.429 51.0263 118.805 49.7454C117.368 49.0424 115.774 48.2458 113.947 49.4798C111.838 50.8857 109.448 51.8855 107.183 53.0727C105.261 54.0724 103.231 54.9004 101.372 56.1813Z" fill="white"/>
<path d="M71.1291 93.4064C69.9887 89.673 67.5362 86.6269 64.8494 83.7369C67.7861 82.2217 70.2855 80.7846 72.8786 79.613C75.6748 78.3477 78.3616 76.8793 81.0953 75.5202C82.7356 74.7079 85.1412 75.6764 86.5627 77.4729C87.9061 79.16 88.5622 81.1595 89.1246 83.1746C89.4214 84.2212 89.3745 85.1116 87.9218 85.7833C84.1571 87.5485 80.4236 89.423 76.6902 91.2507C75.3936 91.8912 74.0033 92.4223 72.8161 93.2815C72.4569 93.5783 71.9726 93.4845 71.1291 93.4064Z" fill="white"/>
<path d="M92.4988 83.0966C91.3897 79.4413 90.3899 75.7078 86.594 73.6771C87.3907 72.3649 88.7341 72.1306 89.7651 71.6151C92.2332 70.4122 94.7482 69.3188 97.0914 67.8816C100.419 65.8509 103.59 67.1943 105.011 70.4904C105.527 71.6776 105.652 72.9429 106.277 74.0832C106.87 75.1767 106.12 77.1293 104.933 77.6605C101.559 79.1601 98.3879 81.1283 94.9357 82.4561C94.2015 82.7529 93.6235 83.6121 92.4988 83.0966Z" fill="white"/>
<path d="M108.745 111.09C108.745 113.23 108.823 115.417 108.713 117.588C108.635 119.088 107.104 119.4 106.12 119.931C103.137 121.54 100.09 123.055 97.0756 124.586C95.0761 125.586 93.1703 126.758 91.124 127.679C90.5928 127.913 90.0773 127.976 89.2963 127.804C89.2963 125.617 89.2338 123.383 89.3275 121.165C89.3744 120.134 90.421 119.744 91.1552 119.4C95.4041 117.354 99.4969 114.995 103.746 112.933C104.964 112.355 106.37 111.949 107.354 110.886C107.682 110.527 108.104 110.715 108.745 111.09Z" fill="white"/>
<path d="M106.308 99.0769C107.245 99.2956 107.448 99.9361 107.417 100.702C107.386 101.451 106.901 101.717 106.261 102.061C103.418 103.56 100.528 104.982 97.685 106.497C95.4981 107.669 93.2174 108.684 91.0148 109.84C88.0936 111.355 85.1256 112.761 82.2513 114.401C80.0644 115.651 77.6119 116.479 75.4718 117.807C74.3314 118.51 73.3629 118.635 72.1757 118.494C71.9102 117.791 72.0195 117.151 72.1289 116.573C83.5791 110.699 94.9669 104.872 106.308 99.0769Z" fill="white"/>
<path d="M106.745 87.8608C107.807 89.5635 107.495 90.4071 106.105 91.0944C102.777 92.7503 99.5126 94.5154 96.1853 96.1713C93.2798 97.6084 90.4211 99.1549 87.4687 100.514C84.6882 101.795 82.0638 103.404 79.3457 104.794C77.6118 105.685 75.8622 106.512 74.1751 107.512C73.644 107.825 72.9098 107.747 72.2225 107.497C71.8788 106.903 71.9882 106.278 72.16 105.528C83.6572 99.6704 95.1699 93.7812 106.745 87.8608Z" fill="white"/>
<path d="M72.1289 112.886C72.0039 112.214 71.9727 111.621 72.2383 111.043C83.5792 105.232 94.9045 99.4049 106.261 93.5939C106.917 93.8751 107.495 94.1875 107.433 95.0779C107.37 95.9214 106.792 96.2182 106.152 96.5619C102.34 98.6551 98.4349 100.608 94.5608 102.56C91.6709 104.029 88.8123 105.607 85.813 106.872C83.6573 107.778 81.6734 109.106 79.5958 110.184C77.815 111.09 75.9873 111.886 74.2846 112.948C73.7066 113.308 72.91 113.23 72.1289 112.886Z" fill="white"/>
<path d="M72.1915 123.914C71.5042 122.102 72.9569 121.493 73.863 121.103C76.7685 119.837 79.5178 118.306 82.314 116.869C85.157 115.417 88.047 114.073 90.8119 112.433C92.9207 111.183 95.2171 110.246 97.404 109.137C99.7316 107.965 102.059 106.731 104.371 105.544C105.215 105.107 106.089 104.779 107.167 105.013C107.605 106.184 107.527 106.966 106.167 107.622C104.355 108.481 102.606 109.543 100.809 110.402C98.56 111.48 96.373 112.683 94.1236 113.761C91.1712 115.167 88.3594 116.869 85.3914 118.228C82.4702 119.572 79.8146 121.431 76.7685 122.493C76.3155 122.649 75.8469 122.915 75.5188 123.258C74.5347 124.242 73.3787 124.071 72.1915 123.914Z" fill="white"/>
<path d="M72.1445 101.92C71.9883 101.264 71.9883 100.67 72.1445 100.108C75.1906 98.327 78.393 96.9367 81.4391 95.1871C83.626 93.9218 86.0317 93.0158 88.2499 91.7973C89.2965 91.2194 89.9057 91.7505 90.6712 92.1722C90.7024 94.1561 88.9216 94.2811 87.8125 94.9216C85.6099 96.1869 83.298 97.2491 81.0329 98.3894C79.7051 99.0612 78.4398 99.8735 77.0652 100.389C76.1904 100.717 75.4562 101.248 74.6595 101.654C73.7535 102.107 73.0037 102.076 72.1445 101.92Z" fill="white"/>
<path d="M84.2821 128.71C84.5789 129.163 84.7976 129.491 85.0319 129.866C84.8913 131.178 74.1908 136.708 72.2694 136.349C71.957 135.724 72.0507 135.037 72.0976 134.334C75.8623 132.444 79.5957 130.585 83.3604 128.726C83.5791 128.616 83.9384 128.71 84.2821 128.71Z" fill="white"/>
<path d="M72.1289 130.866C72.0039 130.21 71.9883 129.663 72.2539 128.96C75.0657 127.585 78.018 126.18 80.908 124.68C81.4859 124.383 82.1733 124.118 82.6419 123.743C83.8291 122.79 84.3915 123.383 84.9851 124.321C84.3602 126.242 74.1909 131.475 72.1289 130.866Z" fill="white"/>
<path d="M18.7047 107.434C22.7506 107.497 25.0001 109.481 26.7028 112.355C28.3742 115.182 28.4367 118.104 27.3745 121.134C26.8121 122.712 23.4692 125.071 21.8602 124.68C18.5173 123.868 15.7211 122.306 14.0496 118.931C12.8624 116.526 13.2217 114.136 13.3936 111.761C13.6123 109.075 16.2366 107.341 18.7047 107.434ZM15.6118 114.839C15.6118 117.432 17.0645 119.728 19.5951 121.384C21.8914 122.884 24.0784 122.024 25.2031 119.619C25.9373 118.072 25.4843 116.869 25.2031 115.401C24.672 112.792 23.1099 111.09 20.9542 110.059C19.9232 109.559 18.486 109.449 17.1895 110.449C15.7523 111.527 15.643 112.855 15.6118 114.839Z" fill="white"/>
<path d="M27.468 73.1615C27.718 75.8484 27.0775 77.8635 25.1405 79.3944C23.2659 80.8784 20.4698 80.9565 18.3765 79.8474C16.3145 78.7539 14.5962 77.223 13.6746 75.2391C12.6123 72.9585 11.9406 70.4434 13.0185 67.7879C13.5652 66.4601 14.1588 65.3041 15.3148 64.4293C17.2049 62.9922 19.3919 63.3046 21.2508 63.9451C23.3128 64.648 25.1561 66.0383 26.2027 68.194C27.0462 69.8811 27.8273 71.5369 27.468 73.1615ZM25.078 73.6145C25.2498 70.6934 23.7033 68.647 21.6882 66.835C20.2823 65.5853 17.4393 65.7727 16.2364 66.8975C15.2835 67.7879 14.4556 70.5216 15.018 71.8025C15.471 72.8647 15.9084 73.9426 16.5488 74.9111C17.3299 76.0983 18.2359 77.3792 19.6418 77.7541C22.5317 78.5039 25.4373 77.5667 25.078 73.6145Z" fill="white"/>
</svg>
