<svg width="129" height="103" viewBox="0 0 129 103" fill="none" xmlns="http://www.w3.org/2000/svg">
<path opacity="0.3" d="M86.6022 54.7607L73.526 102.014L102.948 102.014L120.185 59.2186C127.02 42.8732 128.209 37.2266 128.209 29.4997C128.209 12.56 116.024 0.969658 99.3813 0.969657C83.036 0.969655 70.8513 12.2628 70.8513 29.4997C70.8513 41.6844 76.795 50.6001 86.6022 54.7607ZM16.4658 54.7607L3.38954 102.014L32.8112 102.014L50.0481 59.2186C56.8834 42.8732 58.0722 37.2266 58.0722 29.4997C58.0722 12.56 45.8875 0.969652 29.2449 0.969651C12.8996 0.969649 0.714856 12.2628 0.714854 29.4997C0.714853 41.6844 6.65862 50.6001 16.4658 54.7607Z" fill="white"/>
</svg>
