<svg width="128" height="102" viewBox="0 0 128 102" fill="none" xmlns="http://www.w3.org/2000/svg">
<path opacity="0.3" d="M86.2343 54.4997L73.158 101.753L102.58 101.753L119.817 58.9576C126.652 42.6122 127.841 36.9656 127.841 29.2387C127.841 12.299 115.656 0.708672 99.0134 0.70867C82.668 0.708669 70.4833 12.0018 70.4833 29.2387C70.4833 41.4235 76.4271 50.3391 86.2343 54.4997ZM16.0979 54.4997L3.02159 101.753L32.4432 101.753L49.6801 58.9576C56.5155 42.6122 57.7042 36.9656 57.7042 29.2387C57.7042 12.299 45.5195 0.708666 28.877 0.708664C12.5316 0.708663 0.346905 12.0018 0.346904 29.2387C0.346903 41.4235 6.29067 50.3391 16.0979 54.4997Z" fill="black"/>
</svg>
