<svg width="137" height="130" viewBox="0 0 137 130" fill="none" xmlns="http://www.w3.org/2000/svg">
<path d="M123.196 88.006C123.196 92.6164 123.196 97.2117 123.196 101.702C121.424 103.339 119.787 104.931 118.075 106.432C114.516 109.541 111.182 112.89 107.713 116.074C104.409 119.122 101.06 122.126 97.9367 125.384C96.48 126.901 94.8731 128.358 92.8608 129.244C92.4703 129.409 92.1099 129.454 91.7345 129.454C90.5631 129.484 89.3767 129.529 88.2054 129.439C86.5985 129.319 85.307 128.523 84.1657 127.382C83.4298 126.631 83.55 125.895 84.0155 125.159C84.7814 123.928 85.9528 123.042 87.019 122.126C88.0552 121.225 89.1515 120.354 90.0976 119.377C91.5543 117.876 93.3413 116.704 94.5427 114.932C94.9933 114.272 95.0684 113.776 94.6178 113.1C93.897 112.004 93.1011 111.178 91.6294 111.163C90.6682 111.163 89.8273 110.442 88.8061 110.472C86.2531 110.562 84.0606 111.418 82.1984 113.235C81.0871 114.332 80.0209 115.443 78.414 115.999C76.9573 116.494 75.5006 116.629 74.089 116.344C72.8876 116.089 71.6261 115.878 70.5449 115.097C68.923 113.941 68.6677 112.605 70.0943 111.358C74.4194 107.544 78.6092 103.594 82.7691 99.5845C82.8742 98.9688 82.8742 98.338 82.7691 97.7223C80.2912 95.2895 76.7471 94.6888 73.6234 95.8001C71.1305 96.6861 69.5837 98.6384 67.7967 100.29C65.3638 102.543 63.0211 104.916 60.5733 107.138C56.7438 110.622 53.0045 114.166 49.2351 117.711C47.7934 119.062 45.9913 119.768 43.949 119.738C42.1469 119.708 40.3748 119.558 38.7079 118.777C37.1911 118.071 36.7856 116.389 37.8068 115.097C38.4526 114.287 39.3837 113.806 40.0594 113.055C42.5824 110.277 45.661 108.084 48.1388 105.261C48.289 105.096 48.5293 105.006 48.6945 104.886C48.8747 104 48.9648 103.174 48.6494 102.408C46.2466 100.155 43.3332 100.26 40.3898 100.561C39.3536 100.666 38.4676 101.176 37.7167 101.912C36.7706 102.843 35.6593 103.549 34.9685 104.09C31.4544 105.471 28.4209 105.216 25.4625 103.279C24.5164 101.597 24.6065 100.741 26.1983 99.3893C28.3308 97.5872 30.2531 95.5448 32.2954 93.6226C33.3466 92.6464 33.1364 91.5501 32.2203 90.529C30.7186 88.847 28.7213 89.0122 26.8291 88.9071C24.2761 88.7569 22.0986 89.5378 20.2214 91.5201C17.6384 94.2383 14.755 96.6711 11.9918 99.2241C10.9857 100.155 9.8143 100.651 8.4327 100.651C6.49545 100.636 4.58823 100.921 2.69603 99.99C0.398365 98.8486 0.563556 98.1278 0.908958 96.2506C2.71105 94.884 4.34795 93.3072 6.01489 91.7604C8.76308 89.1774 11.4662 86.5644 14.2144 83.9964C16.7674 81.6086 19.3354 79.2358 21.9184 76.8781C23.0597 75.8269 24.0809 74.6405 25.3123 73.6944C26.1983 73.0186 26.6639 72.1326 26.6338 70.9312C26.5588 68.0028 26.6188 65.0594 26.6188 62.1159C26.3185 61.7856 26.0331 61.4552 25.7929 61.1849C23.6003 60.7043 21.5279 60.1487 20.1914 58.1814C19.2302 56.7547 18.7497 55.2079 19.2753 53.571C19.5907 52.5649 19.6207 51.5587 19.8009 50.5525C20.2965 47.6241 20.4316 44.6657 20.747 41.7223C20.9723 39.6348 21.4528 37.5624 21.2576 35.475C21.0474 33.2975 20.8221 31.0599 19.7559 29.0776C18.99 27.6509 17.5633 26.7649 16.6322 25.4584C15.0404 23.2508 13.7489 20.9681 13.7188 18.1449C13.7038 17.0636 13.6438 15.9823 13.7339 14.9161C14.0492 10.8314 15.6561 7.40738 18.8398 4.70424C19.861 3.83323 20.7921 2.87211 22.0385 2.33149C23.33 1.76082 24.5464 0.904829 26.0482 0.994934C26.9642 1.03999 27.7301 0.334166 28.6162 0.514376C30.5985 0.904829 32.6558 0.78469 34.5781 1.64068C35.5692 2.09121 36.7256 2.06117 37.7918 2.43661C40.1796 3.27758 42.6274 3.99842 45.0903 4.59912C47.1176 5.07968 49.0699 5.74045 51.0222 6.41623C53.3048 7.19714 55.7076 7.49749 57.9302 8.48864C58.8613 8.90913 59.9576 8.98422 60.9788 9.25453C63.3815 9.9153 65.6642 10.9966 68.112 11.4471C70.4097 11.8826 72.5722 12.7085 74.7948 13.3243C76.8222 13.8799 78.8345 14.5557 80.8318 15.2014C82.1383 15.6219 83.535 15.9373 84.8865 16.2977C86.2231 16.6581 87.5746 16.9585 88.8661 17.4841C89.9024 17.9046 91.0287 18.2199 92.1399 18.5203C93.3413 18.8507 94.4977 19.3613 95.8042 19.3913C96.5551 19.4063 97.2159 19.9319 97.9667 20.1572C100.835 21.0132 103.778 21.689 106.572 22.8453C107.653 23.2958 108.914 23.4761 110.071 23.7163C112.999 24.332 115.732 25.5184 118.631 26.2393C120.523 26.7048 122.43 27.2154 124.307 27.756C128.257 28.9124 131.426 31.1199 133.813 34.619C136.532 38.6136 136.381 42.9537 135.886 47.3388C135.691 49.1108 134.339 50.5525 133.288 52.0392C132.447 53.2557 131.426 54.3069 130.434 55.3731C129.744 56.109 129.368 56.95 129.233 57.9261C128.752 61.3801 128.918 64.8491 129.038 68.3332C129.158 71.7572 129.789 75.1211 130.014 78.515C130.044 78.9505 130.074 79.4311 130.269 79.8065C131.621 82.4195 130.044 85.3029 128.032 86.5944C127.176 87.15 126.034 87.8108 124.758 87.6156C124.337 87.6005 123.842 87.6456 123.196 88.006ZM22.9546 56.2892C23.6454 56.6646 24.201 57.1302 24.9819 57.3855C25.9881 57.7158 27.0844 57.821 27.9854 58.2114C29.9827 59.0674 32.0852 59.5329 34.1276 60.1937C36.9959 61.1398 39.9693 61.7555 42.8677 62.6566C43.964 63.002 45.1804 63.1371 46.1715 63.5877C47.463 64.1733 48.8447 64.3535 50.1512 64.774C51.6079 65.2246 53.0646 65.7051 54.5363 66.1256C55.6025 66.426 56.6237 66.8765 57.6749 67.0867C59.0115 67.357 60.288 67.8076 61.5945 68.1229C63.8771 68.6636 66.0847 69.5196 68.3673 70.0602C69.1933 70.2554 69.8391 70.8411 70.635 70.9312C72.9026 71.1865 74.975 72.2077 77.1976 72.6582C78.2638 72.8835 79.4652 73.0787 80.4864 73.5893C81.5076 74.0999 82.6489 74.2951 83.7001 74.6405C84.9166 75.031 86.2231 75.3313 87.4395 75.7218C88.4907 76.0672 89.6621 76.0371 90.6082 76.5477C91.7795 77.1935 93.1011 77.1634 94.3175 77.659C95.6991 78.2146 97.1558 78.7403 98.6725 78.9805C99.919 79.1908 101.03 79.8816 102.262 80.0618C103.793 80.3021 105.175 80.9328 106.632 81.3833C107.743 81.7287 108.929 81.8339 110.161 82.3895C110.146 81.2181 110.942 80.5123 110.972 79.5662C111.047 76.8931 111.978 74.3101 111.843 71.607C111.813 71.0814 112.008 70.5407 112.053 70.0151C112.459 66.2157 112.714 62.4313 112.053 58.6019C111.738 56.7848 110.897 55.4933 109.635 54.2018C106.617 51.1082 104.469 47.5791 104.935 42.9687C105.055 41.8574 104.77 40.671 105.13 39.6048C105.806 37.6225 106.527 35.6552 107.818 33.9582C108.779 32.6817 109.785 31.5104 111.152 30.6093C112.083 30.0086 113.074 29.468 114.065 28.7171C112.924 28.2816 111.813 28.0564 110.972 27.6059C109.936 27.0352 108.869 27.0953 107.863 26.7198C106.572 26.2242 105.235 25.6836 103.884 25.5334C102.457 25.3683 101.18 24.7826 99.8439 24.4071C97.5913 23.7914 95.3837 23.0255 93.1461 22.3197C91.8546 21.9142 90.428 21.8692 89.2416 21.2835C88.1303 20.7279 86.9289 20.6678 85.8026 20.2924C84.5261 19.8568 83.1295 19.4964 81.838 19.0459C79.5253 18.235 77.1225 17.8445 74.8098 17.0786C74.1791 16.8684 73.6535 16.4329 72.9627 16.3578C71.4309 16.1776 70.0493 15.4417 68.5626 15.0963C67.3912 14.811 66.2649 14.2253 65.1086 14.1052C63.787 13.955 62.5256 13.5045 61.3692 13.069C60.4531 12.7236 59.4169 12.8437 58.651 12.3331C57.4647 11.5522 56.0831 11.5222 54.8216 11.1167C53.455 10.6812 51.9983 10.3959 50.6618 9.96035C48.6344 9.29958 46.532 8.83404 44.5346 8.03812C43.8438 7.75278 43.1681 7.30226 42.3721 7.24219C40.8554 7.12205 39.4888 6.41623 37.987 6.16093C37.116 6.01076 36.0798 6.01076 35.344 5.54522C33.8572 4.62916 32.1603 4.68923 30.5684 4.26874C28.9015 3.83323 27.1745 4.11856 25.4625 4.79435C23.6604 5.51519 22.0085 6.37118 20.6869 7.73777C18.7647 9.72007 17.6384 12.0778 17.2329 14.856C16.7524 18.2049 17.6534 21.0733 19.7559 23.6412C20.1013 24.0617 20.5368 24.4522 21.0474 24.5123C22.8194 24.7525 24.3812 25.6235 26.0932 26.029C27.0694 26.2693 27.8653 27.0202 28.9766 26.9301C30.3732 26.8249 31.5596 27.6509 32.806 28.0714C33.5269 28.3117 34.3228 28.1164 34.8934 28.5069C36.26 29.438 37.9119 29.453 39.3837 29.9936C41.2308 30.6844 43.1981 31.0899 45.0603 31.7206C46.3067 32.1411 47.9286 31.9909 48.9047 33.9132C49.2351 34.6641 48.304 35.2648 47.6433 35.9706C47.0275 36.0457 46.3818 36.1958 45.9162 35.7904C44.9852 34.9794 43.7537 35.0395 42.6875 34.6941C41.396 34.2886 40.0594 33.8531 38.7529 33.4777C36.5454 32.8319 34.2627 32.3514 32.1302 31.4653C30.9288 30.9698 29.6524 30.8046 28.451 30.294C27.3397 29.8284 26.0932 29.7233 24.9669 29.2428C24.6365 29.1076 24.201 29.1526 23.9457 29.5581C24.7116 31.2551 24.4413 33.0422 24.4864 34.7692C24.6215 40.0854 24.4263 45.4015 23.6153 50.6727C23.5853 50.8679 23.6003 51.0781 23.5102 51.2433C22.5791 52.8502 22.9546 54.5622 22.9546 56.2892ZM127.01 82.9301C127.116 81.083 127.251 79.2058 126.71 77.5088C125.839 74.7456 126.124 71.8923 125.644 69.1141C125.118 66.0505 125.283 62.8518 125.539 59.7282C125.674 57.9261 125.914 56.0489 126.89 54.427C127.611 53.2557 128.542 52.2195 129.533 51.2734C131.426 49.4713 132.507 47.2337 132.852 44.6957C133.273 41.6321 132.432 38.7788 130.72 36.2559C128.347 32.7268 124.908 31.0148 120.703 30.7295C118.751 30.5943 117.099 31.4203 115.342 32.0961C112.999 33.0121 111.482 34.6791 110.176 36.6914C109.305 38.043 109.125 39.6498 108.524 41.0465C107.563 43.2691 108.374 45.2664 108.929 47.1586C109.47 48.9607 110.656 50.6727 112.248 51.9642C114.261 53.586 115.297 55.8837 115.462 58.3165C115.898 64.8041 115.582 71.3066 114.561 77.7491C114.546 77.8392 114.546 77.9443 114.501 78.0344C113.915 79.5963 114.08 81.2031 114.065 82.84C114.456 83.2004 114.846 83.5458 115.177 83.8612C116.093 83.9363 116.904 84.0414 117.775 83.8011C118.03 81.068 117.67 78.3798 117.955 75.7818C119.682 74.4903 121.394 74.4603 123.241 75.7818C123.241 78.3648 123.241 81.083 123.241 83.7861C124.292 84.0414 125.163 83.9663 125.884 83.8612C126.305 83.5158 126.65 83.2305 127.01 82.9301Z" fill="white"/>
<path d="M100.91 48.2098C101.21 49.1859 101.21 49.9368 100.985 50.7778C100.054 51.5587 98.9428 51.4235 97.9817 51.003C96.5701 50.3873 95.0383 50.2371 93.6116 49.6965C90.9085 48.6603 88.0101 48.2098 85.292 47.2787C83.3247 46.6029 81.2373 46.2725 79.33 45.2964C78.5642 44.9059 77.5129 44.7257 76.5819 44.5756C75.1402 44.3503 73.7285 43.9148 72.362 43.5093C70.4998 42.9687 68.6226 42.4581 66.7905 41.7973C65.7092 41.4069 64.628 40.9413 63.5167 40.7762C62.1501 40.5809 60.9487 39.9051 59.5821 39.7399C58.7712 39.6348 58.3507 38.7338 57.9001 38.028C58.1855 37.187 58.9063 36.7365 59.522 36.0457C73.308 40.0853 87.1541 44.1701 100.91 48.2098Z" fill="white"/>
</svg>
