<svg width="120" height="121" viewBox="0 0 120 121" fill="none" xmlns="http://www.w3.org/2000/svg">
<path d="M40.7748 43.4347C41.6839 43.9574 42.8278 43.822 43.5888 43.1003C46.3478 40.4832 49.7182 38.5414 53.3354 37.4862C54.346 37.1909 55.0413 36.2639 55.0413 35.2109V29.5917H65.2471V35.2109C65.2471 36.5189 66.3096 37.5814 67.6176 37.5814C68.9256 37.5814 69.9881 36.5189 69.9881 35.2109V27.2212C69.9881 25.9132 68.9256 24.8507 67.6176 24.8507H52.6708C51.3628 24.8507 50.3003 25.9132 50.3003 27.2212V33.4933C47.1681 34.6299 44.2281 36.3241 41.6577 38.4735L36.194 35.3315C35.0616 34.6796 33.6161 35.0669 32.9609 36.1982L25.4864 49.1066C25.1711 49.6505 25.0854 50.3003 25.2483 50.9077C25.4102 51.5162 25.8103 52.0348 26.3563 52.348L31.8106 55.4857C31.5227 57.1154 31.3767 58.7811 31.3767 60.4575C31.3767 62.1348 31.5227 63.7994 31.8106 65.4292L26.3563 68.567C25.8103 68.8813 25.4113 69.3987 25.2483 70.0072C25.0843 70.6157 25.1711 71.2644 25.4864 71.8084L32.9609 84.7168C33.4011 85.4766 34.1959 85.9009 35.015 85.9009C35.416 85.9009 35.8224 85.7994 36.1939 85.5845L43.1381 81.5886C44.2736 80.9356 44.6631 79.4869 44.0102 78.3525C43.3583 77.217 41.9074 76.8255 40.7741 77.4805L35.8776 80.2966L30.7802 71.492L35.665 68.6813C36.5793 68.1564 37.0365 67.0886 36.7867 66.0642C36.3433 64.2504 36.1179 62.3636 36.1179 60.4577C36.1179 58.5518 36.3433 56.6649 36.7867 54.8512C37.0365 53.8257 36.5804 52.759 35.665 52.2341L30.7802 49.4234L35.8776 40.6188L40.7748 43.4347Z" fill="white" stroke="white"/>
<path d="M95.0304 50.9064C95.1944 50.2979 95.1076 49.6503 94.7923 49.1053L87.3178 36.1969C86.6638 35.0667 85.2172 34.6793 84.0837 35.3302L77.1469 39.325C76.0125 39.978 75.6231 41.4278 76.276 42.5622C76.929 43.6966 78.3788 44.0861 79.5132 43.4331L84.4023 40.6181L89.4998 49.4227L84.6201 52.2312C83.7058 52.7572 83.2497 53.8239 83.5005 54.8483C83.9439 56.6621 84.1693 58.549 84.1693 60.4548C84.1693 62.3607 83.9439 64.2476 83.5005 66.0613C83.2507 67.0857 83.7068 68.1525 84.6201 68.6784L89.4998 71.487L84.4023 80.2916L79.5132 77.4765C78.6041 76.9538 77.4591 77.0892 76.6992 77.811C73.9413 80.4259 70.5687 82.3709 66.9485 83.4335C65.939 83.7298 65.2458 84.6557 65.2458 85.7076V91.3207H55.04V85.7076C55.04 84.3996 53.9775 83.3372 52.6695 83.3372C51.3615 83.3372 50.299 84.3996 50.299 85.7076V93.6911C50.299 94.9991 51.3615 96.0616 52.6695 96.0616H67.6163C68.9243 96.0616 69.9868 94.9991 69.9868 93.6911V87.422C73.1201 86.2822 76.0601 84.5858 78.6283 82.4366L84.0847 85.5787C85.2192 86.2316 86.6647 85.8443 87.3189 84.712L94.7933 71.8036C95.1087 71.2596 95.1944 70.6109 95.0315 70.0024C94.8695 69.3939 94.4706 68.8754 93.9245 68.5611L88.4757 65.4245C88.7635 63.7948 88.9096 62.128 88.9096 60.4508C88.9096 58.7736 88.7635 57.1067 88.4757 55.4771L93.9245 52.3405C94.4695 52.0336 94.8674 51.516 95.0304 50.9064Z" fill="white" stroke="white"/>
<path d="M94.2745 15.8397C95.5825 15.8397 96.645 14.7772 96.645 13.4692V3.56604C96.645 2.25805 95.5825 1.19556 94.2745 1.19556C92.9665 1.19556 91.904 2.25805 91.904 3.56604V11.0987H85.2667V3.56604C85.2667 2.25805 84.2042 1.19556 82.8962 1.19556C81.5882 1.19556 80.5257 2.25805 80.5257 3.56604V11.0987H73.8884V3.56604C73.8884 2.25805 72.8259 1.19556 71.5179 1.19556C70.2099 1.19556 69.1474 2.25805 69.1474 3.56604V11.0987H62.5101V3.56604C62.5101 2.25805 61.4476 1.19556 60.1396 1.19556C58.8316 1.19556 57.7691 2.25805 57.7691 3.56604V11.0987H51.1318V3.56604C51.1318 2.25805 50.0693 1.19556 48.7613 1.19556C47.4533 1.19556 46.3909 2.25805 46.3909 3.56604V11.0987H39.7524V3.56604C39.7524 2.25805 38.6899 1.19556 37.3819 1.19556C36.074 1.19556 35.0115 2.25805 35.0115 3.56604V11.0987H28.3741V3.56604C28.3741 2.25805 27.3116 1.19556 26.0036 1.19556C24.6957 1.19556 23.6332 2.25805 23.6332 3.56604V11.0987H13.1513C11.8433 11.0987 10.7808 12.1612 10.7808 13.4692V23.9522H3.24813C1.94014 23.9522 0.877655 25.0146 0.877655 26.3226C0.877655 27.6306 1.94014 28.6931 3.24813 28.6931H10.7808V35.3305H3.24813C1.94014 35.3305 0.877655 36.3929 0.877655 37.7009C0.877655 39.0089 1.94014 40.0714 3.24813 40.0714H10.7808V46.7088H3.24813C1.94014 46.7088 0.877655 47.7712 0.877655 49.0792C0.877655 50.3872 1.94014 51.4497 3.24813 51.4497H10.7808V58.0871H3.24813C1.94014 58.0871 0.877655 59.1495 0.877655 60.4575C0.877655 61.7655 1.94014 62.828 3.24813 62.828H10.7808V69.4653H3.24813C1.94014 69.4653 0.877655 70.5278 0.877655 71.8358C0.877655 73.1438 1.94014 74.2063 3.24813 74.2063H10.7808V80.8437H3.24813C1.94014 80.8437 0.877655 81.9061 0.877655 83.2141C0.877655 84.5221 1.94014 85.5846 3.24813 85.5846H10.7808V92.2219H3.24813C1.94014 92.2219 0.877655 93.2844 0.877655 94.5924C0.877655 95.9004 1.94014 96.9629 3.24813 96.9629H10.7808V107.445C10.7808 108.753 11.8433 109.815 13.1513 109.815C14.4593 109.815 15.5218 108.753 15.5218 107.445V15.8386L94.2745 15.8397Z" fill="white" stroke="white"/>
<path d="M117.031 40.0727C118.339 40.0727 119.402 39.0102 119.402 37.7022C119.402 36.3942 118.339 35.3317 117.031 35.3317H109.497V28.6944H117.031C118.339 28.6944 119.402 27.6319 119.402 26.3239C119.402 25.0159 118.339 23.9534 117.031 23.9534H109.497V13.4716C109.497 12.1636 108.435 11.1011 107.127 11.1011C105.819 11.1011 104.756 12.1636 104.756 13.4716V105.078L26.0023 105.077C24.6943 105.077 23.6318 106.139 23.6318 107.447V117.35C23.6318 118.658 24.6943 119.721 26.0023 119.721C27.3103 119.721 28.3728 118.658 28.3728 117.35V109.818H35.0101V117.35C35.0101 118.658 36.0726 119.721 37.3806 119.721C38.6886 119.721 39.7511 118.658 39.7511 117.35V109.818H46.3895V117.35C46.3895 118.658 47.452 119.721 48.76 119.721C50.068 119.721 51.1304 118.658 51.1304 117.35V109.818H57.7678V117.35C57.7678 118.658 58.8303 119.721 60.1383 119.721C61.4463 119.721 62.5087 118.658 62.5087 117.35V109.818H69.1461V117.35C69.1461 118.658 70.2086 119.721 71.5166 119.721C72.8246 119.721 73.887 118.658 73.887 117.35V109.818H80.5244V117.35C80.5244 118.658 81.5869 119.721 82.8949 119.721C84.2029 119.721 85.2653 118.658 85.2653 117.35V109.818H91.9027V117.35C91.9027 118.658 92.9652 119.721 94.2732 119.721C95.5811 119.721 96.6436 118.658 96.6436 117.35V109.818H107.125C108.433 109.818 109.496 108.755 109.496 107.447V96.9642H117.03C118.338 96.9642 119.4 95.9017 119.4 94.5937C119.4 93.2857 118.338 92.2232 117.03 92.2232H109.496V85.5859H117.03C118.338 85.5859 119.4 84.5234 119.4 83.2154C119.4 81.9074 118.338 80.8449 117.03 80.8449H109.496V74.2076H117.03C118.338 74.2076 119.4 73.1451 119.4 71.8371C119.4 70.5291 118.338 69.4666 117.03 69.4666H109.496V62.8293H117.03C118.338 62.8293 119.4 61.7668 119.4 60.4588C119.4 59.1508 118.338 58.0883 117.03 58.0883H109.496V51.451H117.03C118.338 51.451 119.4 50.3885 119.4 49.0805C119.4 47.7725 118.338 46.71 117.03 46.71H109.496V40.0727L117.031 40.0727Z" fill="white" stroke="white"/>
<path d="M60.1396 75.3076C68.3274 75.3076 74.987 68.6469 74.987 60.4591C74.987 52.2714 68.3274 45.6118 60.1396 45.6118C51.9519 45.6118 45.2912 52.2714 45.2912 60.4591C45.2912 68.6469 51.9519 75.3076 60.1396 75.3076ZM60.1396 50.353C65.7123 50.353 70.246 54.8865 70.246 60.4594C70.246 66.0323 65.7126 70.5669 60.1396 70.5669C54.5667 70.5669 50.0322 66.0323 50.0322 60.4594C50.0322 54.8865 54.5667 50.353 60.1396 50.353Z" fill="white" stroke="white"/>
</svg>
