<svg width="113" height="128" viewBox="0 0 113 128" fill="none" xmlns="http://www.w3.org/2000/svg">
<path d="M35.3246 60.8116L36.1605 61.8608C36.2248 61.9392 36.2985 62.0082 36.3612 62.0851C36.6498 62.4379 36.9666 62.7641 37.2724 63.1029C37.953 63.8541 38.6775 64.5645 39.4397 65.2326C39.6483 65.4145 39.8443 65.609 40.0576 65.7846C40.5139 66.161 40.9923 66.495 41.4769 66.8432C41.7294 67.0235 41.9787 67.2101 42.239 67.3827C42.7127 67.6979 43.1972 67.9833 43.6897 68.2656C43.9877 68.4365 44.2888 68.6043 44.593 68.7643C45.0666 69.0121 45.5496 69.2442 46.0437 69.4622C46.4012 69.6237 46.7541 69.7696 47.132 69.9138C47.6056 70.0942 48.0557 70.2714 48.5278 70.4251C49.0014 70.5788 49.4201 70.6901 49.8702 70.8124C50.3203 70.9348 50.7124 71.0492 51.1437 71.1386C51.7067 71.261 52.2822 71.3441 52.8578 71.4303C53.1981 71.4821 53.5353 71.5511 53.8771 71.5872L53.8787 71.5856C55.7622 71.7973 57.6614 71.7973 59.5447 71.5856C59.8882 71.5495 60.2238 71.4821 60.5641 71.4288C61.1397 71.3441 61.7137 71.261 62.2782 71.1371C62.7095 71.0445 63.1282 70.9238 63.5516 70.8109C63.9751 70.698 64.4534 70.5741 64.8941 70.4235C65.3348 70.2714 65.8288 70.0926 66.2899 69.9123C66.6568 69.768 67.0207 69.6206 67.3782 69.4606C67.8707 69.2426 68.3537 69.0105 68.8289 68.7627C69.1347 68.6012 69.4342 68.4334 69.7322 68.264C70.2246 67.9817 70.7092 67.6963 71.1828 67.3811C71.4432 67.2086 71.6909 67.022 71.945 66.8416C72.4186 66.4981 72.8922 66.1594 73.3643 65.783C73.5776 65.6074 73.7736 65.4145 73.9822 65.231L73.9838 65.2326C74.7459 64.5645 75.4705 63.8541 76.1511 63.1029C76.4569 62.7641 76.7737 62.4379 77.0622 62.0851C77.1265 62.0066 77.2002 61.9376 77.263 61.8608L78.0988 60.8116L78.0581 60.7505C81.8407 55.4891 83.547 49.0154 82.8493 42.5729C82.1514 36.1304 79.0964 30.1726 74.2742 25.8443C69.4519 21.516 63.1991 19.1228 56.7189 19.1228C50.2387 19.1228 43.9861 21.5159 39.1636 25.8443C34.3411 30.1726 31.2879 36.1304 30.5885 42.5729C29.8906 49.0154 31.5969 55.4891 35.3797 60.7505L35.3246 60.8116ZM72.9721 61.1378C72.7729 61.3417 72.5722 61.5424 72.3683 61.7385C72.0201 62.0741 71.661 62.4003 71.294 62.7155C71.109 62.8723 70.9208 63.0213 70.7311 63.1703C70.328 63.4918 69.9187 63.8038 69.4953 64.0956C69.3196 64.2163 69.1424 64.3324 68.9652 64.439C68.5151 64.7323 68.0619 65.0161 67.593 65.2765C67.4126 65.3737 67.2307 65.4584 67.0503 65.5509C66.5767 65.7987 66.0921 66.0402 65.595 66.2613C65.3817 66.3507 65.1622 66.4244 64.9473 66.4981C64.4737 66.6847 64 66.8713 63.5061 67.0266C63.2191 67.1191 62.9243 67.1834 62.6325 67.2634C62.1966 67.381 61.7669 67.5002 61.3215 67.6021C60.8761 67.7041 60.4746 67.7417 60.0481 67.8029C59.714 67.8531 59.3878 67.9205 59.0522 67.9566C57.4918 68.1197 55.9172 68.1197 54.3569 67.9566C54.0213 67.9205 53.6936 67.8531 53.3611 67.8029C52.9345 67.7417 52.5064 67.69 52.0877 67.6021C51.6689 67.5143 51.2126 67.3826 50.7766 67.2634C50.4849 67.185 50.1901 67.1207 49.9031 67.0266C49.4137 66.8729 48.9354 66.6863 48.4587 66.4981C48.2438 66.4134 48.0259 66.3397 47.8125 66.2613C47.3154 66.048 46.8355 65.8065 46.3572 65.5509C46.1769 65.4584 45.9949 65.3737 45.8146 65.2765C45.341 65.0161 44.8909 64.7322 44.4423 64.439C44.2651 64.3261 44.0879 64.2163 43.9123 64.0956C43.4888 63.8039 43.0795 63.4918 42.6765 63.1703C42.4867 63.0213 42.2985 62.8723 42.1135 62.7155C41.745 62.4003 41.3858 62.0741 41.0392 61.7385C40.8354 61.5424 40.6346 61.3401 40.4355 61.1378C40.2363 60.9339 40.1046 60.774 39.9383 60.5889H39.9399C43.9374 55.3746 50.1337 52.3177 56.7047 52.3177C63.2756 52.3177 69.472 55.3743 73.4694 60.5889C73.3032 60.774 73.143 60.9606 72.9721 61.1378ZM56.7043 22.8536C62.1351 22.8442 67.3888 24.7935 71.4995 28.3426C75.6114 31.8931 78.3041 36.8064 79.0853 42.1826C79.8663 47.5571 78.6839 53.0332 75.7528 57.6081C71.0543 51.9324 64.0707 48.6471 56.7016 48.6471C49.3337 48.6471 42.3505 51.9326 37.652 57.6081C34.721 53.0332 33.5385 47.5555 34.3195 42.181C35.102 36.8048 37.7947 31.8916 41.9065 28.341C46.0184 24.7903 51.272 22.8428 56.7043 22.8536ZM56.7043 47.1444C59.3406 47.1444 61.8685 46.0968 63.7333 44.2337C65.5964 42.3691 66.644 39.8412 66.644 37.2047C66.644 34.5682 65.5964 32.0405 63.7333 30.1757C61.8687 28.3126 59.3408 27.265 56.7043 27.265C54.0678 27.265 51.5402 28.3126 49.6753 30.1757C47.8122 32.0403 46.7646 34.5682 46.7646 37.2047C46.7693 39.8394 47.8185 42.3645 49.6816 44.2273C51.5447 46.0904 54.0699 47.1397 56.7043 47.1444ZM56.7043 30.924C58.3698 30.9225 59.9679 31.5827 61.1454 32.7605C62.3248 33.9382 62.9866 35.5347 62.9881 37.2004C62.9881 38.8659 62.3263 40.4639 61.1486 41.6415C59.9724 42.8193 58.3743 43.481 56.7087 43.481C55.0432 43.481 53.4451 42.8193 52.2688 41.6415C51.091 40.4637 50.4292 38.8657 50.4308 37.2004C50.4308 35.5365 51.0926 33.9415 52.2688 32.7653C53.445 31.5875 55.0399 30.9257 56.7038 30.9242L56.7043 30.924ZM24.5189 61.5473L19.4065 71.5794L30.5896 82.7516L40.6265 77.6376H40.6249C42.143 78.3951 43.7112 79.0459 45.3186 79.5838L48.8001 90.292H64.6114L68.0898 79.5854C69.6988 79.0476 71.2687 78.3967 72.785 77.6377L82.8187 82.7516L93.9941 71.5714L88.8818 61.5377H88.8833C89.6423 60.0212 90.2932 58.4514 90.8311 56.8425L101.539 53.3641V37.564L90.8311 34.0856C90.2932 32.475 89.644 30.9052 88.8849 29.3888L93.9945 19.3551L82.8174 8.17967L72.7838 13.292V13.2905C71.2673 12.5314 69.699 11.8806 68.0901 11.3427L64.6117 0.631348H48.8004L45.322 11.3395L45.3204 11.341C43.713 11.8789 42.1447 12.5298 40.628 13.2873L30.5895 8.17489L19.4141 19.3503L24.5265 29.384L24.5249 29.3856C23.7674 30.9036 23.1166 32.4719 22.5771 34.0808L11.8706 37.5623V53.3688L22.5771 56.8472C23.1134 58.4578 23.763 60.0277 24.5189 61.5473ZM15.5267 40.2282L25.5041 36.9835L25.7817 36.0677L25.7801 36.0692C26.3933 34.0587 27.201 32.1125 28.1921 30.2587L28.6422 29.4165L23.8811 20.0634L31.2879 12.6566L40.6411 17.4209L41.4833 16.9708C43.337 15.978 45.2816 15.1704 47.2922 14.5588L48.2112 14.2812L51.4528 4.30094H61.9305L65.1721 14.2812L66.0911 14.5588C68.1047 15.1673 70.0556 15.9718 71.9125 16.9614L72.7547 17.413L82.1094 12.6487L89.5146 20.0555L84.7551 29.4039L85.2052 30.2492H85.2068C86.1963 32.1044 87.0025 34.0507 87.6125 36.0641L87.8916 36.98L97.8719 40.2216V50.6992L87.8916 53.9408L87.6125 54.8567C87.004 56.8672 86.1964 58.8134 85.2037 60.664L84.7536 61.5093L89.5146 70.8625L82.1078 78.2725L72.7579 73.5222L71.9157 73.977C70.0605 74.9666 68.1142 75.7727 66.1024 76.3859L65.1865 76.665L61.9449 86.6409H51.4673L48.2225 76.6634L47.3067 76.3858H47.3083C45.2978 75.7711 43.3515 74.965 41.4977 73.977L40.6556 73.5222L31.3024 78.2789L23.8956 70.8688L28.6567 61.5189L28.2066 60.6736C27.2139 58.8215 26.4062 56.8753 25.7977 54.8647L25.5202 53.9488L15.5399 50.7072L15.5267 40.2282ZM33.3923 105.877L24.2824 103.898L19.7594 95.9755V95.9739C19.4348 95.4062 18.831 95.0549 18.1771 95.0518C17.5247 95.0518 16.9209 95.3968 16.5916 95.9598L11.8915 104.022L2.95548 105.873L2.95391 105.874C2.31247 106.006 1.79027 106.472 1.5848 107.094C1.37932 107.717 1.52207 108.402 1.95805 108.892L8.17448 115.855L7.17392 124.929V124.927C7.10178 125.58 7.38407 126.22 7.91256 126.607C8.44106 126.996 9.13738 127.071 9.73646 126.806L18.2802 123.046L26.5936 126.798V126.8C27.1911 127.068 27.8874 126.999 28.4206 126.616C28.9522 126.234 29.2408 125.597 29.1765 124.945L28.2293 115.657L34.3658 108.906C34.8065 108.422 34.9555 107.738 34.7563 107.112C34.5571 106.488 34.038 106.017 33.3982 105.879L33.3923 105.877ZM24.9597 113.791V113.792C24.6053 114.177 24.4328 114.693 24.4861 115.212L25.1965 122.148L19.0427 119.367C18.566 119.156 18.0233 119.156 17.5466 119.367L11.1684 122.176L11.9086 115.453H11.9102C11.9666 114.937 11.802 114.421 11.4554 114.034L6.81192 108.827L13.4379 107.452C13.9491 107.347 14.3898 107.03 14.6532 106.581L18.1646 100.558L21.5065 106.418C21.7637 106.87 22.2028 107.191 22.711 107.301L29.5252 108.78L24.9597 113.791ZM71.9283 105.877L62.8104 103.897L58.2857 95.9739H58.2842C57.958 95.4062 57.3542 95.0549 56.7002 95.0518C56.0478 95.0518 55.4456 95.3984 55.1147 95.9598L50.4179 104.022L41.4819 105.873L41.4803 105.874C40.8389 106.006 40.3167 106.472 40.1112 107.094C39.9057 107.717 40.0485 108.402 40.4844 108.892L46.6993 115.855L45.7034 124.929L45.7018 124.927C45.6454 125.445 45.8116 125.964 46.1598 126.351C46.5063 126.74 47.0035 126.963 47.5241 126.963C47.7798 126.963 48.0322 126.91 48.2659 126.806L56.8065 123.046L65.123 126.798V126.8C65.7206 127.07 66.4153 126.999 66.9485 126.616C67.4801 126.234 67.7672 125.595 67.7028 124.945L66.7556 115.657L72.897 108.906C73.3377 108.42 73.4866 107.736 73.2859 107.112C73.0867 106.488 72.5676 106.017 71.9262 105.879L71.9283 105.877ZM63.4941 113.791L63.4925 113.792C63.1396 114.177 62.9671 114.693 63.0189 115.212L63.7293 122.148L57.5755 119.367C57.1003 119.156 56.5561 119.156 56.0809 119.367L49.6919 122.176L50.4352 115.453H50.4337C50.4885 114.937 50.3223 114.421 49.9773 114.034L45.3338 108.827L51.9598 107.452C52.471 107.347 52.9117 107.03 53.1736 106.581L56.6834 100.558L60.0426 106.418C60.3014 106.87 60.7389 107.19 61.247 107.301L68.064 108.785L63.4941 113.791ZM111.848 107.111C111.647 106.487 111.129 106.017 110.49 105.879L101.368 103.898L96.8438 95.9754V95.9738C96.5176 95.4061 95.9139 95.0548 95.2599 95.0517C94.6075 95.0517 94.0053 95.3983 93.6744 95.9597L88.9776 104.022L80.0431 105.873V105.874C79.4001 106.006 78.8764 106.47 78.6709 107.094C78.4655 107.717 78.6082 108.402 79.0457 108.892L85.2605 115.855L84.2615 124.929V124.927C84.191 125.58 84.4717 126.22 85.0002 126.607C85.5302 126.996 86.225 127.071 86.8256 126.806L95.3662 123.045L103.683 126.798V126.8C104.28 127.068 104.977 126.999 105.508 126.616C106.041 126.234 106.328 125.597 106.264 124.945L105.317 115.657L111.455 108.906H111.457C111.897 108.42 112.045 107.736 111.847 107.112L111.848 107.111ZM102.055 113.792H102.054C101.702 114.177 101.532 114.693 101.582 115.212L102.292 122.148L96.1383 119.367C95.6631 119.156 95.1205 119.156 94.6453 119.367L88.2562 122.176L88.9965 115.45V115.451C89.0513 114.934 88.8851 114.418 88.5385 114.031L83.8979 108.824L90.5238 107.449V107.45C91.0351 107.345 91.4758 107.028 91.7392 106.578L95.249 100.554L98.5753 106.418C98.834 106.87 99.2716 107.19 99.7797 107.301L106.594 108.78L102.055 113.792Z" fill="white" stroke="white"/>
</svg>
