<svg width="128" height="111" viewBox="0 0 128 111" fill="none" xmlns="http://www.w3.org/2000/svg">
<path d="M63.406 0.833645C62.9007 0.899211 62.4114 1.05152 61.9596 1.28554L2.67107 31.6528C1.71685 32.14 0.976471 32.9621 0.593161 33.9627C0.209852 34.9623 0.209852 36.0699 0.593161 37.0694C0.976471 38.07 1.71685 38.8921 2.67107 39.3793L61.9596 69.7466H61.9585C63.2063 70.3901 64.688 70.3901 65.9357 69.7466L125.224 39.3793H125.223C126.177 38.8921 126.918 38.07 127.301 37.0694C127.684 36.0698 127.684 34.9623 127.301 33.9627C126.918 32.9621 126.177 32.14 125.223 31.6528L65.9347 1.28554H65.9357C65.157 0.88307 64.2744 0.725707 63.4049 0.833645H63.406ZM63.9487 10.052L113.704 35.5386L63.9487 60.9797L14.1939 35.5386L63.9487 10.052ZM4.47948 52.8477C3.16617 52.883 1.9396 53.5104 1.14372 54.5544C0.347874 55.5994 0.0674406 56.948 0.382165 58.223C0.69689 59.498 1.57142 60.5621 2.76166 61.1169L62.0501 90.0381C63.2485 90.6211 64.6476 90.6211 65.8458 90.0381L125.134 61.1169C126.175 60.6166 126.974 59.7219 127.354 58.6305C127.735 57.5401 127.665 56.3428 127.16 55.3027C126.655 54.2638 125.758 53.4679 124.665 53.0917C123.573 52.7165 122.376 52.7911 121.339 53.2995L63.948 81.3169L6.55746 53.2995C5.9119 52.9787 5.19775 52.8234 4.47854 52.8476L4.47948 52.8477ZM4.47948 73.092C3.16617 73.1273 1.9396 73.7547 1.14372 74.7997C0.347874 75.8437 0.0674406 77.1933 0.382165 78.4683C0.69689 79.7433 1.57142 80.8075 2.76166 81.3623L62.0501 110.283C63.2485 110.865 64.6476 110.865 65.8458 110.283L125.134 81.3623C126.175 80.8609 126.974 79.9662 127.354 78.8758C127.735 77.7844 127.665 76.5871 127.16 75.5481C126.655 74.5081 125.758 73.7123 124.665 73.337C123.573 72.9608 122.376 73.0354 121.339 73.5438L63.948 101.561L6.55746 73.5438C5.9119 73.223 5.19775 73.0677 4.47854 73.0919L4.47948 73.092Z" fill="white"/>
</svg>
