<svg width="121" height="121" viewBox="0 0 121 121" fill="none" xmlns="http://www.w3.org/2000/svg">
<path d="M103.235 102.834C114.409 91.618 120.682 76.4315 120.682 60.5998C120.682 44.7681 114.409 29.5806 103.235 18.3659C103.187 18.3141 103.171 18.2463 103.119 18.1936C103.067 18.1419 103.003 18.1294 102.951 18.0821C91.7357 6.90669 76.5468 0.631348 60.7128 0.631348C44.8788 0.631348 29.6914 6.90669 18.4744 18.0821C18.4226 18.1303 18.3548 18.1419 18.3066 18.1936C18.2584 18.2454 18.2388 18.3132 18.1906 18.3659C7.01701 29.5815 0.7435 44.7681 0.7435 60.5998C0.7435 76.4315 7.01701 91.619 18.1906 102.834C18.2388 102.885 18.2548 102.953 18.3066 103.006C18.3584 103.058 18.4262 103.074 18.4788 103.122L18.4779 103.121C29.6936 114.295 44.8801 120.568 60.7118 120.568C76.5435 120.568 91.731 114.295 102.946 103.121C102.997 103.073 103.065 103.057 103.118 103.005C103.17 102.953 103.186 102.885 103.233 102.834H103.235ZM97.4943 91.7154C96.4823 90.7034 95.0071 90.3081 93.6248 90.6784C92.2425 91.0487 91.1628 92.1285 90.7924 93.5107C90.4221 94.8931 90.8174 96.3682 91.8294 97.3803L94.4842 100.035C86.1279 107.214 75.6968 111.536 64.7124 112.369V108.574C64.7124 107.146 63.9503 105.826 62.7135 105.112C61.4766 104.398 59.9524 104.398 58.7155 105.112C57.4787 105.826 56.7166 107.146 56.7166 108.574V112.369C45.7303 111.533 35.2983 107.206 26.9448 100.023L29.5996 97.3677V97.3686C30.6098 96.3566 31.0024 94.8823 30.6312 93.5018C30.26 92.1213 29.1802 91.0441 27.7988 90.6756C26.4174 90.3071 24.945 90.7033 23.9348 91.7153L21.28 94.3701C14.1006 86.0138 9.77879 75.5827 8.94631 64.5983H12.7407C14.1694 64.5983 15.4892 63.8362 16.2031 62.5993C16.917 61.3624 16.917 59.8382 16.2031 58.6014C15.4892 57.3646 14.1693 56.6025 12.7407 56.6025H8.94631C9.78158 45.6162 14.1052 35.1851 21.288 26.8306L23.9465 29.4855C24.9584 30.4956 26.4327 30.8883 27.8132 30.5171C29.1938 30.1458 30.2709 29.066 30.6394 27.6847C31.008 26.3033 30.6117 24.8309 29.5998 23.8207L26.9449 21.1658C35.3012 13.9865 45.7323 9.66465 56.7168 8.83217V12.6265C56.7168 14.0552 57.4789 15.375 58.7157 16.0889C59.9526 16.8029 61.4768 16.8029 62.7136 16.0889C63.9505 15.375 64.7126 14.0552 64.7126 12.6265V8.83217C75.6988 9.66835 86.1309 13.9947 94.4844 21.1784L91.8296 23.8332V23.8323C90.8194 24.8443 90.4268 26.3186 90.798 27.6991C91.1692 29.0797 92.249 30.1568 93.6303 30.5253C95.0118 30.8939 96.4842 30.4976 97.4944 29.4857L100.153 26.8308C107.331 35.1871 111.651 45.6192 112.483 56.6027H108.689C107.26 56.6027 105.94 57.3648 105.226 58.6016C104.512 59.8385 104.512 61.3627 105.226 62.5995C105.94 63.8364 107.26 64.5985 108.689 64.5985H112.483C111.647 75.5847 107.321 86.0167 100.137 94.3703L97.4943 91.7154Z" fill="white"/>
<path d="M64.7112 58.9435V32.6144C64.7112 31.1857 63.9491 29.8659 62.7123 29.152C61.4754 28.4381 59.9512 28.4381 58.7144 29.152C57.4775 29.8659 56.7154 31.1858 56.7154 32.6144V60.5998C56.7154 61.6599 57.1366 62.6764 57.8871 63.426L69.8809 75.4197C70.8964 76.4004 72.3536 76.7734 73.7154 76.4004C75.0763 76.0265 76.14 74.9628 76.514 73.6019C76.887 72.2401 76.514 70.7828 75.5332 69.7673L64.7112 58.9435Z" fill="white"/>
</svg>
