<svg width="14" height="14" viewBox="0 0 14 14" fill="none" xmlns="http://www.w3.org/2000/svg">
<path fill-rule="evenodd" clip-rule="evenodd" d="M9.13913 2.28031C9.36712 2.83616 9.55588 3.48678 9.69327 4.20481H12.8168C11.9144 2.31003 10.1283 0.920915 7.99403 0.575084C8.43875 0.936385 8.82839 1.525 9.13873 2.28076L9.13913 2.28031ZM9.69327 9.82672C9.55549 10.5448 9.36712 11.1954 9.13913 11.7512C8.82881 12.507 8.43875 13.0956 7.99443 13.4569C10.1288 13.1107 11.9149 11.7215 12.8172 9.82717H9.69367L9.69327 9.82672ZM4.85582 9.82672C4.98234 10.4538 5.14983 11.021 5.34946 11.5081C5.78378 12.5658 6.3517 13.2197 6.94934 13.2197C7.54738 13.2197 8.11491 12.5653 8.54922 11.5081C8.74924 11.0215 8.91673 10.4538 9.04286 9.82672H4.85517H4.85582ZM4.20603 9.82672H1.08248C1.98492 11.7215 3.77103 13.1106 5.90526 13.4564C5.46054 13.0951 5.07091 12.5065 4.76056 11.7508C4.53258 11.1949 4.34381 10.5443 4.20642 9.82627L4.20603 9.82672ZM4.09951 4.8466H0.817618C0.57963 5.52526 0.449707 6.2551 0.449707 7.01555C0.449707 7.77601 0.579138 8.50622 0.817618 9.18451H4.09951C4.00309 8.5033 3.95046 7.77346 3.95046 7.01555C3.95046 6.25724 4.0027 5.52741 4.09951 4.8466ZM4.20603 4.20476C4.34381 3.48673 4.53218 2.83611 4.76017 2.28026C5.07048 1.5245 5.46054 0.935886 5.90486 0.574585C3.77045 0.92079 1.98439 2.31 1.08208 4.20431H4.20563L4.20603 4.20476ZM4.85582 4.20476H9.0435C8.91698 3.57765 8.74949 3.0105 8.54986 2.52334C8.11554 1.46571 7.54762 0.811801 6.94998 0.811801C6.35194 0.811801 5.78441 1.46621 5.3501 2.52334C5.15008 3.01 4.98259 3.57765 4.85646 4.20476H4.85582ZM9.30947 7.01583C9.30947 6.25285 9.25481 5.52224 9.15499 4.84687H4.74409C4.64427 5.52262 4.58961 6.25285 4.58961 7.01583C4.58961 7.7788 4.64427 8.50941 4.74409 9.18478H9.15499C9.25481 8.50904 9.30947 7.7788 9.30947 7.01583ZM13.0818 4.84687H9.79991C9.89632 5.52808 9.94895 6.25792 9.94895 7.01583C9.94895 7.77414 9.89671 8.50397 9.79991 9.18478H13.0818C13.3198 8.50612 13.4497 7.77628 13.4497 7.01583C13.4497 6.25537 13.3203 5.52516 13.0818 4.84687Z" fill="#632A50"/>
</svg>
