<svg width="14" height="14" viewBox="0 0 14 14" fill="none" xmlns="http://www.w3.org/2000/svg">
<path fill-rule="evenodd" clip-rule="evenodd" d="M9.31296 2.39367C9.54094 2.9546 9.72971 3.61116 9.8671 4.33576H12.9906C12.0882 2.42366 10.3021 1.02186 8.16786 0.672867C8.61258 1.03747 9.00222 1.63146 9.31256 2.39413L9.31296 2.39367ZM9.8671 10.009C9.72931 10.7336 9.54095 11.3902 9.31296 11.9511C9.00264 12.7138 8.61258 13.3078 8.16826 13.6724C10.3027 13.323 12.0887 11.9211 12.991 10.0095H9.86749L9.8671 10.009ZM5.02964 10.009C5.15616 10.6419 5.32366 11.2142 5.52328 11.7058C5.95761 12.7731 6.52552 13.433 7.12316 13.433C7.7212 13.433 8.28874 12.7726 8.72305 11.7058C8.92307 11.2147 9.09056 10.6419 9.21668 10.009H5.029H5.02964ZM4.37985 10.009H1.2563C2.15874 11.9211 3.94485 13.3229 6.07909 13.6719C5.63437 13.3073 5.24473 12.7133 4.93439 11.9507C4.70641 11.3897 4.51764 10.7332 4.38025 10.0086L4.37985 10.009ZM4.27334 4.9834H0.991446C0.753459 5.66827 0.623535 6.40477 0.623535 7.17217C0.623535 7.93958 0.752966 8.67646 0.991446 9.36094H4.27334C4.17692 8.67351 4.12429 7.93701 4.12429 7.17217C4.12429 6.40694 4.17653 5.67043 4.27334 4.9834ZM4.37985 4.33571C4.51764 3.61111 4.70601 2.95455 4.93399 2.39362C5.24431 1.63095 5.63437 1.03697 6.07869 0.672363C3.94428 1.02173 2.15822 2.42364 1.25591 4.33525H4.37946L4.37985 4.33571ZM5.02964 4.33571H9.21733C9.09081 3.70287 8.92332 3.13053 8.72369 2.63892C8.28936 1.57163 7.72145 0.911747 7.12381 0.911747C6.52577 0.911747 5.95823 1.57213 5.52393 2.63892C5.32391 3.13003 5.15642 3.70287 5.03029 4.33571H5.02964ZM9.4833 7.17245C9.4833 6.40251 9.42864 5.66522 9.32882 4.98368H4.91792C4.8181 5.6656 4.76343 6.40251 4.76343 7.17245C4.76343 7.9424 4.8181 8.67968 4.91792 9.36122H9.32882C9.42864 8.67931 9.4833 7.9424 9.4833 7.17245ZM13.2556 4.98368H9.97373C10.0702 5.67111 10.1228 6.40762 10.1228 7.17245C10.1228 7.93769 10.0705 8.67419 9.97373 9.36122H13.2556C13.4936 8.67636 13.6235 7.93985 13.6235 7.17245C13.6235 6.40505 13.4941 5.66817 13.2556 4.98368Z" fill="#72C7DB"/>
</svg>
